<!--
  - (c) 2022 CARIAD SE, All rights reserved.
  -
  - NOTICE:
  - All the information and materials contained herein, including the intellectual and technical concepts,
  - are the property of CARIAD SE and may be covered by patents, patents in process, and are protected by trade secret and/or copyright law.
  - The copyright notice above does not evidence any actual or intended publication or disclosure of this source code, which includes information and materials
  - that are confidential and/or proprietary and trade secrets of CARIAD SE.
  - Any reproduction, dissemination, modification, distribution, public performance, public display of or any other use of this source code and/or any other
  - information and/or material contained herein without the prior written consent of CARIAD SE is strictly prohibited and in violation of applicable laws.
  - The receipt or possession of this source code and/or related information does not convey or imply any rights to reproduce, disclose or distribute its
  - contents or to manufacture, use or sell anything that it may describe in whole or in part.
  -->

<svg width="100%" height="100%" viewBox="0 0 660 466" fill="none" xmlns="http://www.w3.org/2000/svg">
<rect width="660" height="466" fill="#F9F9FA"/>
<g opacity="0.8">
<rect x="455.102" y="143.929" width="144.23" height="239.071" rx="5.24471" fill="#F4F4F6"/>
<g filter="url(#filter0_d_704_39262)">
<rect x="455.102" y="143.929" width="144.23" height="239.071" rx="3.49647" fill="white" shape-rendering="crispEdges"/>
</g>
<g clip-path="url(#clip0_704_39262)">
<g clip-path="url(#clip1_704_39262)">
<rect width="69.4924" height="10.4894" transform="translate(469.087 158.57)" fill="white"/>
<rect x="469.087" y="158.57" width="69.4924" height="10.4894" fill="#AFAFBB"/>
<rect width="116.258" height="185.313" transform="translate(469.087 176.053)" fill="white"/>
<rect x="469.087" y="176.053" width="98.7754" height="10.4894" fill="#CDCDD2"/>
<path fill-rule="evenodd" clip-rule="evenodd" d="M576.604 179.682C576.79 179.682 576.94 179.826 576.94 180.005V182.155C576.94 182.333 576.79 182.477 576.604 182.477C576.419 182.477 576.269 182.333 576.269 182.155V180.005C576.269 179.826 576.419 179.682 576.604 179.682Z" fill="#CDCDD2"/>
<path fill-rule="evenodd" clip-rule="evenodd" d="M576.55 185.664H573.894C573.044 185.664 572.359 185.369 572.016 184.808C571.674 184.248 571.74 183.528 572.151 182.815L574.862 178.128C575.293 177.381 575.911 176.927 576.604 176.927C577.298 176.927 577.916 177.381 578.347 178.128L581.057 182.819C581.469 183.533 581.533 184.253 581.191 184.813C580.848 185.373 580.163 185.668 579.315 185.668H576.604C576.586 185.668 576.567 185.666 576.55 185.664Z" fill="#CDCDD2"/>
<path fill-rule="evenodd" clip-rule="evenodd" d="M576.155 183.445C576.155 183.207 576.355 183.015 576.602 183.015H576.606C576.853 183.015 577.053 183.207 577.053 183.445C577.053 183.682 576.853 183.875 576.606 183.875H576.602C576.355 183.875 576.155 183.682 576.155 183.445Z" fill="#CDCDD2"/>
<path fill-rule="evenodd" clip-rule="evenodd" d="M576.604 179.682C576.79 179.682 576.94 179.826 576.94 180.005V182.155C576.94 182.333 576.79 182.477 576.604 182.477C576.419 182.477 576.269 182.333 576.269 182.155V180.005C576.269 179.826 576.419 179.682 576.604 179.682Z" fill="white"/>
<rect x="469.087" y="193.535" width="98.7754" height="10.4894" fill="#CDCDD2"/>
<rect x="469.087" y="211.018" width="98.7754" height="10.4894" fill="#CDCDD2"/>
<path fill-rule="evenodd" clip-rule="evenodd" d="M576.604 214.647C576.79 214.647 576.94 214.791 576.94 214.969V217.12C576.94 217.298 576.79 217.442 576.604 217.442C576.419 217.442 576.269 217.298 576.269 217.12V214.969C576.269 214.791 576.419 214.647 576.604 214.647Z" fill="#CDCDD2"/>
<path fill-rule="evenodd" clip-rule="evenodd" d="M576.55 220.628H573.894C573.044 220.628 572.359 220.334 572.016 219.773C571.674 219.213 571.74 218.493 572.151 217.78L574.862 213.093C575.293 212.346 575.911 211.892 576.604 211.892C577.298 211.892 577.916 212.346 578.347 213.093L581.057 217.784C581.469 218.498 581.533 219.218 581.191 219.778C580.848 220.338 580.163 220.633 579.315 220.633H576.604C576.586 220.633 576.567 220.631 576.55 220.628Z" fill="#CDCDD2"/>
<path fill-rule="evenodd" clip-rule="evenodd" d="M576.155 218.41C576.155 218.172 576.355 217.98 576.602 217.98H576.606C576.853 217.98 577.053 218.172 577.053 218.41C577.053 218.647 576.853 218.84 576.606 218.84H576.602C576.355 218.84 576.155 218.647 576.155 218.41Z" fill="#CDCDD2"/>
<path fill-rule="evenodd" clip-rule="evenodd" d="M576.604 214.647C576.79 214.647 576.94 214.791 576.94 214.969V217.12C576.94 217.298 576.79 217.442 576.604 217.442C576.419 217.442 576.269 217.298 576.269 217.12V214.969C576.269 214.791 576.419 214.647 576.604 214.647Z" fill="white"/>
<rect x="469.087" y="228.5" width="98.7754" height="10.4894" fill="#CDCDD2"/>
<path fill-rule="evenodd" clip-rule="evenodd" d="M576.604 232.129C576.79 232.129 576.94 232.274 576.94 232.452V234.602C576.94 234.78 576.79 234.924 576.604 234.924C576.419 234.924 576.269 234.78 576.269 234.602V232.452C576.269 232.274 576.419 232.129 576.604 232.129Z" fill="#CDCDD2"/>
<path fill-rule="evenodd" clip-rule="evenodd" d="M576.55 238.111H573.894C573.044 238.111 572.359 237.816 572.016 237.256C571.674 236.695 571.74 235.976 572.151 235.263L574.862 230.575C575.293 229.828 575.911 229.374 576.604 229.374C577.298 229.374 577.916 229.828 578.347 230.575L581.057 235.267C581.469 235.98 581.533 236.7 581.191 237.26C580.848 237.82 580.163 238.115 579.315 238.115H576.604C576.586 238.115 576.567 238.114 576.55 238.111Z" fill="#CDCDD2"/>
<path fill-rule="evenodd" clip-rule="evenodd" d="M576.155 235.892C576.155 235.655 576.355 235.462 576.602 235.462H576.606C576.853 235.462 577.053 235.655 577.053 235.892C577.053 236.129 576.853 236.322 576.606 236.322H576.602C576.355 236.322 576.155 236.129 576.155 235.892Z" fill="#CDCDD2"/>
<path fill-rule="evenodd" clip-rule="evenodd" d="M576.604 232.129C576.79 232.129 576.94 232.274 576.94 232.452V234.602C576.94 234.78 576.79 234.924 576.604 234.924C576.419 234.924 576.269 234.78 576.269 234.602V232.452C576.269 232.274 576.419 232.129 576.604 232.129Z" fill="white"/>
<rect x="469.087" y="245.982" width="98.7754" height="10.4894" fill="#CDCDD2"/>
<rect x="469.087" y="263.465" width="98.7754" height="10.4894" fill="#CDCDD2"/>
<path fill-rule="evenodd" clip-rule="evenodd" d="M576.604 267.094C576.79 267.094 576.94 267.239 576.94 267.417V269.567C576.94 269.745 576.79 269.889 576.604 269.889C576.419 269.889 576.269 269.745 576.269 269.567V267.417C576.269 267.239 576.419 267.094 576.604 267.094Z" fill="#CDCDD2"/>
<path fill-rule="evenodd" clip-rule="evenodd" d="M576.55 273.076H573.894C573.044 273.076 572.359 272.781 572.016 272.22C571.674 271.66 571.74 270.941 572.151 270.227L574.862 265.54C575.293 264.793 575.911 264.339 576.604 264.339C577.298 264.339 577.916 264.793 578.347 265.54L581.057 270.232C581.469 270.945 581.533 271.665 581.191 272.225C580.848 272.785 580.163 273.08 579.315 273.08H576.604C576.586 273.08 576.567 273.079 576.55 273.076Z" fill="#CDCDD2"/>
<path fill-rule="evenodd" clip-rule="evenodd" d="M576.155 270.857C576.155 270.619 576.355 270.427 576.602 270.427H576.606C576.853 270.427 577.053 270.619 577.053 270.857C577.053 271.094 576.853 271.287 576.606 271.287H576.602C576.355 271.287 576.155 271.094 576.155 270.857Z" fill="#CDCDD2"/>
<path fill-rule="evenodd" clip-rule="evenodd" d="M576.604 267.094C576.79 267.094 576.94 267.239 576.94 267.417V269.567C576.94 269.745 576.79 269.889 576.604 269.889C576.419 269.889 576.269 269.745 576.269 269.567V267.417C576.269 267.239 576.419 267.094 576.604 267.094Z" fill="white"/>
<rect x="469.087" y="280.947" width="98.7754" height="10.4894" fill="#CDCDD2"/>
<path fill-rule="evenodd" clip-rule="evenodd" d="M576.604 284.577C576.79 284.577 576.94 284.721 576.94 284.899V287.049C576.94 287.227 576.79 287.372 576.604 287.372C576.419 287.372 576.269 287.227 576.269 287.049V284.899C576.269 284.721 576.419 284.577 576.604 284.577Z" fill="#CDCDD2"/>
<path fill-rule="evenodd" clip-rule="evenodd" d="M576.55 290.558H573.894C573.044 290.558 572.359 290.263 572.016 289.703C571.674 289.142 571.74 288.423 572.151 287.71L574.862 283.023C575.293 282.276 575.911 281.821 576.604 281.821C577.298 281.821 577.916 282.275 578.347 283.022L581.057 287.714C581.469 288.428 581.533 289.147 581.191 289.707C580.848 290.268 580.163 290.562 579.315 290.562H576.604C576.586 290.562 576.567 290.561 576.55 290.558Z" fill="#CDCDD2"/>
<path fill-rule="evenodd" clip-rule="evenodd" d="M576.155 288.339C576.155 288.102 576.355 287.909 576.602 287.909H576.606C576.853 287.909 577.053 288.102 577.053 288.339C577.053 288.577 576.853 288.769 576.606 288.769H576.602C576.355 288.769 576.155 288.577 576.155 288.339Z" fill="#CDCDD2"/>
<path fill-rule="evenodd" clip-rule="evenodd" d="M576.604 284.577C576.79 284.577 576.94 284.721 576.94 284.899V287.049C576.94 287.227 576.79 287.372 576.604 287.372C576.419 287.372 576.269 287.227 576.269 287.049V284.899C576.269 284.721 576.419 284.577 576.604 284.577Z" fill="white"/>
<rect x="469.087" y="298.43" width="98.7754" height="10.4894" fill="#CDCDD2"/>
<path fill-rule="evenodd" clip-rule="evenodd" d="M576.604 302.059C576.79 302.059 576.94 302.203 576.94 302.382V304.532C576.94 304.71 576.79 304.854 576.604 304.854C576.419 304.854 576.269 304.71 576.269 304.532V302.382C576.269 302.203 576.419 302.059 576.604 302.059Z" fill="#CDCDD2"/>
<path fill-rule="evenodd" clip-rule="evenodd" d="M576.55 308.041H573.894C573.044 308.041 572.359 307.746 572.016 307.185C571.674 306.625 571.74 305.905 572.151 305.192L574.862 300.505C575.293 299.758 575.911 299.304 576.604 299.304C577.298 299.304 577.916 299.758 578.347 300.505L581.057 305.196C581.469 305.91 581.533 306.63 581.191 307.19C580.848 307.75 580.163 308.045 579.315 308.045H576.604C576.586 308.045 576.567 308.043 576.55 308.041Z" fill="#CDCDD2"/>
<path fill-rule="evenodd" clip-rule="evenodd" d="M576.155 305.822C576.155 305.584 576.355 305.392 576.602 305.392H576.606C576.853 305.392 577.053 305.584 577.053 305.822C577.053 306.059 576.853 306.252 576.606 306.252H576.602C576.355 306.252 576.155 306.059 576.155 305.822Z" fill="#CDCDD2"/>
<path fill-rule="evenodd" clip-rule="evenodd" d="M576.604 302.059C576.79 302.059 576.94 302.203 576.94 302.382V304.532C576.94 304.71 576.79 304.854 576.604 304.854C576.419 304.854 576.269 304.71 576.269 304.532V302.382C576.269 302.203 576.419 302.059 576.604 302.059Z" fill="white"/>
<rect x="469.087" y="315.912" width="98.7754" height="10.4894" fill="#CDCDD2"/>
<rect x="469.087" y="333.395" width="98.7754" height="10.4894" fill="#CDCDD2"/>
<path fill-rule="evenodd" clip-rule="evenodd" d="M576.604 337.024C576.79 337.024 576.94 337.168 576.94 337.346V339.496C576.94 339.675 576.79 339.819 576.604 339.819C576.419 339.819 576.269 339.675 576.269 339.496V337.346C576.269 337.168 576.419 337.024 576.604 337.024Z" fill="#CDCDD2"/>
<path fill-rule="evenodd" clip-rule="evenodd" d="M576.55 343.005H573.894C573.044 343.005 572.359 342.711 572.016 342.15C571.674 341.59 571.74 340.87 572.151 340.157L574.862 335.47C575.293 334.723 575.911 334.269 576.604 334.269C577.298 334.269 577.916 334.723 578.347 335.47L581.057 340.161C581.469 340.875 581.533 341.595 581.191 342.155C580.848 342.715 580.163 343.01 579.315 343.01H576.604C576.586 343.01 576.567 343.008 576.55 343.005Z" fill="#CDCDD2"/>
<path fill-rule="evenodd" clip-rule="evenodd" d="M576.155 340.787C576.155 340.549 576.355 340.357 576.602 340.357H576.606C576.853 340.357 577.053 340.549 577.053 340.787C577.053 341.024 576.853 341.217 576.606 341.217H576.602C576.355 341.217 576.155 341.024 576.155 340.787Z" fill="#CDCDD2"/>
<path fill-rule="evenodd" clip-rule="evenodd" d="M576.604 337.024C576.79 337.024 576.94 337.168 576.94 337.346V339.496C576.94 339.675 576.79 339.819 576.604 339.819C576.419 339.819 576.269 339.675 576.269 339.496V337.346C576.269 337.168 576.419 337.024 576.604 337.024Z" fill="white"/>
<rect x="469.087" y="350.876" width="98.7754" height="10.4894" fill="#CDCDD2"/>
<path fill-rule="evenodd" clip-rule="evenodd" d="M576.604 354.505C576.79 354.505 576.94 354.65 576.94 354.828V356.978C576.94 357.156 576.79 357.3 576.604 357.3C576.419 357.3 576.269 357.156 576.269 356.978V354.828C576.269 354.65 576.419 354.505 576.604 354.505Z" fill="#CDCDD2"/>
<path fill-rule="evenodd" clip-rule="evenodd" d="M576.55 360.487H573.894C573.044 360.487 572.359 360.192 572.016 359.632C571.674 359.071 571.74 358.352 572.151 357.639L574.862 352.951C575.293 352.204 575.911 351.75 576.604 351.75C577.298 351.75 577.916 352.204 578.347 352.951L581.057 357.643C581.469 358.356 581.533 359.076 581.191 359.636C580.848 360.196 580.163 360.491 579.315 360.491H576.604C576.586 360.491 576.567 360.49 576.55 360.487Z" fill="#CDCDD2"/>
<path fill-rule="evenodd" clip-rule="evenodd" d="M576.155 358.268C576.155 358.03 576.355 357.838 576.602 357.838H576.606C576.853 357.838 577.053 358.03 577.053 358.268C577.053 358.505 576.853 358.698 576.606 358.698H576.602C576.355 358.698 576.155 358.505 576.155 358.268Z" fill="#CDCDD2"/>
<path fill-rule="evenodd" clip-rule="evenodd" d="M576.604 354.505C576.79 354.505 576.94 354.65 576.94 354.828V356.978C576.94 357.156 576.79 357.3 576.604 357.3C576.419 357.3 576.269 357.156 576.269 356.978V354.828C576.269 354.65 576.419 354.505 576.604 354.505Z" fill="white"/>
</g>
</g>
<rect x="301.693" y="143.929" width="144.23" height="86.1007" rx="5.24471" fill="#F4F4F6"/>
<g filter="url(#filter1_d_704_39262)">
<rect x="301.693" y="143.929" width="144.23" height="86.1007" rx="3.49647" fill="white" shape-rendering="crispEdges"/>
</g>
<g clip-path="url(#clip2_704_39262)">
<g clip-path="url(#clip3_704_39262)">
<rect width="80.856" height="10.4894" transform="translate(315.679 157.914)" fill="white"/>
<path fill-rule="evenodd" clip-rule="evenodd" d="M316.597 161.347C316.597 159.691 317.954 158.345 319.624 158.345C321.289 158.345 322.651 159.696 322.651 161.347V162.633C322.651 162.728 322.673 162.868 322.714 163.018C322.755 163.165 322.808 163.296 322.856 163.38L323.37 164.227C323.776 164.898 323.451 165.772 322.703 166.018C320.701 166.681 318.541 166.681 316.54 166.018L316.538 166.017C316.16 165.891 315.877 165.628 315.751 165.289C315.624 164.949 315.667 164.567 315.874 164.226L316.389 163.378L316.389 163.378C316.438 163.296 316.492 163.165 316.533 163.017C316.575 162.868 316.597 162.728 316.597 162.633V161.347Z" fill="#AFAFBB"/>
<path fill-rule="evenodd" clip-rule="evenodd" d="M318.481 158.686C318.66 158.233 319.105 157.914 319.624 157.914C320.143 157.914 320.587 158.233 320.767 158.686C320.813 158.805 320.788 158.939 320.702 159.033C320.615 159.127 320.483 159.164 320.36 159.128C320.235 159.092 320.11 159.065 319.982 159.05L319.981 159.05C319.594 159.002 319.227 159.03 318.888 159.128C318.765 159.164 318.632 159.127 318.546 159.033C318.459 158.939 318.434 158.805 318.481 158.686Z" fill="#AFAFBB"/>
<path fill-rule="evenodd" clip-rule="evenodd" d="M318.615 165.862C318.615 166.134 318.729 166.388 318.911 166.569C319.093 166.749 319.349 166.862 319.624 166.862C320.178 166.862 320.633 166.411 320.633 165.862H321.306C321.306 166.78 320.55 167.529 319.624 167.529C319.163 167.529 318.738 167.34 318.435 167.04C318.133 166.74 317.942 166.319 317.942 165.862H318.615Z" fill="#AFAFBB"/>
<rect x="327.043" y="157.914" width="69.4924" height="10.4894" fill="#AFAFBB"/>
<rect width="116.258" height="34.9647" transform="translate(315.679 175.396)" fill="white"/>
<rect x="315.679" y="175.396" width="116.258" height="10.4894" fill="#CDCDD2"/>
<rect x="315.679" y="189.383" width="116.258" height="10.4894" fill="#CDCDD2"/>
<rect x="315.679" y="203.368" width="116.258" height="10.4894" fill="#CDCDD2"/>
</g>
</g>
<rect x="301.693" y="238.771" width="144.23" height="144.23" rx="5.24471" fill="#F4F4F6"/>
<g filter="url(#filter2_d_704_39262)">
<rect x="301.693" y="238.771" width="144" height="144" rx="3.49647" fill="white" shape-rendering="crispEdges"/>
</g>
<g clip-path="url(#clip4_704_39262)">
<path fill-rule="evenodd" clip-rule="evenodd" d="M429.885 295.89C424.84 277.21 410.602 262.283 392.281 256.176L373.808 310.886L429.885 295.89Z" fill="#AFAFBB"/>
<path fill-rule="evenodd" clip-rule="evenodd" d="M373.867 310.933L348.163 363.016C355.91 366.85 364.634 369.015 373.867 369.015C405.939 369.015 431.937 343.01 431.937 310.933C431.937 305.711 431.238 300.655 429.947 295.841L373.867 310.933Z" fill="#E6E6EA"/>
<path fill-rule="evenodd" clip-rule="evenodd" d="M392.273 255.775C386.465 253.827 380.252 252.757 373.788 252.757C341.697 252.757 315.679 278.746 315.679 310.806C315.679 333.637 328.881 353.38 348.069 362.86L373.788 310.806L392.273 255.775Z" fill="#CDCDD2"/>
</g>
<rect x="60" y="143.929" width="232.516" height="238.634" rx="5.24471" fill="#F4F4F6"/>
<g filter="url(#filter3_d_704_39262)">
<rect x="60" y="143.929" width="232.516" height="238.634" rx="3.49647" fill="white" shape-rendering="crispEdges"/>
</g>
<g clip-path="url(#clip5_704_39262)">
<g clip-path="url(#clip6_704_39262)">
<path fill-rule="evenodd" clip-rule="evenodd" d="M75.9915 205.552H124.803C125.91 205.552 126.808 205.246 126.808 204.868V186.131C126.808 185.753 125.91 185.447 124.803 185.447H75.9915C74.8838 185.447 73.9858 185.753 73.9858 186.131V204.868C73.9858 205.246 74.8838 205.552 75.9915 205.552Z" fill="#CDCDD2"/>
<rect x="133.411" y="185.447" width="52.8223" height="8.74119" fill="#CDCDD2"/>
<rect x="133.411" y="196.811" width="140.31" height="8.74119" fill="#E6E6EA"/>
<path fill-rule="evenodd" clip-rule="evenodd" d="M75.991 236.147H124.802C125.91 236.147 126.808 235.841 126.808 235.463V216.726C126.808 216.348 125.91 216.042 124.802 216.042H75.991C74.8833 216.042 73.9854 216.348 73.9854 216.726V235.463C73.9854 235.841 74.8833 236.147 75.991 236.147Z" fill="#CDCDD2"/>
<rect x="133.412" y="216.042" width="52.8228" height="8.74119" fill="#CDCDD2"/>
<rect x="133.412" y="227.406" width="140.31" height="8.74119" fill="#E6E6EA"/>
<path fill-rule="evenodd" clip-rule="evenodd" d="M75.9915 266.741H124.803C125.911 266.741 126.809 266.435 126.809 266.058V247.32C126.809 246.943 125.911 246.637 124.803 246.637H75.9915C74.8838 246.637 73.9858 246.943 73.9858 247.32V266.058C73.9858 266.435 74.8838 266.741 75.9915 266.741Z" fill="#CDCDD2"/>
<rect x="133.412" y="246.637" width="52.8228" height="8.74119" fill="#CDCDD2"/>
<rect x="133.411" y="258" width="140.31" height="8.74119" fill="#E6E6EA"/>
<path fill-rule="evenodd" clip-rule="evenodd" d="M75.9915 297.335H124.803C125.911 297.335 126.809 297.029 126.809 296.652V277.914C126.809 277.537 125.911 277.23 124.803 277.23H75.9915C74.8838 277.23 73.9858 277.537 73.9858 277.914V296.652C73.9858 297.029 74.8838 297.335 75.9915 297.335Z" fill="#CDCDD2"/>
<rect x="133.412" y="277.23" width="52.8228" height="8.74119" fill="#CDCDD2"/>
<rect x="133.412" y="288.594" width="140.31" height="8.74119" fill="#E6E6EA"/>
<path fill-rule="evenodd" clip-rule="evenodd" d="M75.991 327.93H124.802C125.91 327.93 126.808 327.624 126.808 327.246V308.509C126.808 308.131 125.91 307.825 124.802 307.825H75.991C74.8833 307.825 73.9854 308.131 73.9854 308.509V327.246C73.9854 327.624 74.8833 327.93 75.991 327.93Z" fill="#CDCDD2"/>
<rect x="133.412" y="307.825" width="52.8228" height="8.74119" fill="#CDCDD2"/>
<rect x="133.412" y="319.189" width="140.31" height="8.74119" fill="#E6E6EA"/>
<path fill-rule="evenodd" clip-rule="evenodd" d="M75.9915 358.525H124.803C125.911 358.525 126.809 358.219 126.809 357.841V339.103C126.809 338.726 125.911 338.42 124.803 338.42H75.9915C74.8838 338.42 73.9858 338.726 73.9858 339.103V357.841C73.9858 358.219 74.8838 358.525 75.9915 358.525Z" fill="#CDCDD2"/>
<rect x="133.412" y="338.42" width="52.8228" height="8.74119" fill="#CDCDD2"/>
<rect x="133.412" y="349.783" width="140.31" height="8.74119" fill="#E6E6EA"/>
<path fill-rule="evenodd" clip-rule="evenodd" d="M90.8755 162.186L90.8794 162.194L92.088 165.046L92.7789 164.869C93.1201 164.748 93.4948 164.926 93.6158 165.268C93.7369 165.609 93.5582 165.984 93.217 166.105L92.6624 166.262L93.5365 168.004C93.5382 168.007 93.5399 168.01 93.5415 168.014C93.5433 168.017 93.545 168.021 93.5467 168.025C93.6169 168.178 93.6535 168.345 93.6535 168.515V175.079C93.6535 175.753 93.0959 176.268 92.4481 176.268H90.5236C89.8759 176.268 89.3182 175.753 89.3182 175.079V174.399H79.6324V175.079C79.6324 175.753 79.0747 176.268 78.427 176.268H76.5025C75.8547 176.268 75.2971 175.753 75.2971 175.079V168.515C75.2971 168.345 75.3337 168.178 75.4039 168.025C75.4071 168.018 75.4105 168.011 75.4141 168.004L76.2882 166.262L75.7334 166.105C75.3922 165.984 75.2137 165.609 75.3348 165.268C75.4557 164.927 75.8296 164.748 76.1705 164.868L76.8626 165.046L78.0712 162.194L78.0751 162.186C78.5381 161.174 79.5634 160.534 80.6811 160.534H88.2695C89.3872 160.534 90.4125 161.174 90.8755 162.186ZM78.2075 165.232L79.2709 162.724C79.5156 162.197 80.0633 161.845 80.6811 161.845H88.2695C88.8873 161.845 89.435 162.197 89.6797 162.724L90.7431 165.232C89.3233 165.38 87.212 165.499 84.4753 165.499C81.7386 165.499 79.6273 165.38 78.2075 165.232ZM76.623 168.411C76.3144 168.353 76.0183 168.563 75.9618 168.879C75.9054 169.196 76.1098 169.499 76.4184 169.557L79.905 170.334C80.2137 170.392 80.5097 170.183 80.5662 169.866C80.6227 169.55 80.4182 169.246 80.1096 169.188L76.623 168.411ZM92.5318 169.557C92.8405 169.499 93.0449 169.196 92.9884 168.879C92.9319 168.563 92.6359 168.353 92.3272 168.411L88.8407 169.188C88.532 169.246 88.3276 169.55 88.3841 169.866C88.4406 170.183 88.7366 170.392 89.0452 170.334L92.5318 169.557ZM83.7321 169.858C83.4183 169.858 83.1639 170.119 83.1639 170.441C83.1639 170.763 83.4183 171.024 83.7321 171.024H85.1307C85.4445 171.024 85.6989 170.763 85.6989 170.441C85.6989 170.119 85.4445 169.858 85.1307 169.858H83.7321Z" fill="#AFAFBB"/>
<path fill-rule="evenodd" clip-rule="evenodd" d="M102.072 171.898H160.847C162.358 171.898 163.583 171.836 163.583 171.758V165.045C163.583 164.968 162.358 164.905 160.847 164.905H102.072C100.56 164.905 99.3354 164.968 99.3354 165.045V171.758C99.3354 171.836 100.56 171.898 102.072 171.898Z" fill="#CDCDD2"/>
</g>
</g>
<rect x="60" y="74" width="539.331" height="61.1883" fill="#CDCDD2"/>
<path fill-rule="evenodd" clip-rule="evenodd" d="M101.466 92.7868C96.6648 92.7868 92.7726 96.6789 92.7726 101.48C92.7726 106.281 96.6648 110.174 101.466 110.174C106.267 110.174 110.159 106.281 110.159 101.48C110.159 96.6789 106.267 92.7868 101.466 92.7868ZM91.4751 101.48C91.4751 95.9623 95.9482 91.4893 101.466 91.4893C106.984 91.4893 111.457 95.9623 111.457 101.48C111.457 104.006 110.52 106.312 108.975 108.071L117.495 116.592C117.748 116.845 117.748 117.256 117.495 117.509C117.242 117.762 116.831 117.762 116.577 117.509L108.057 108.989C106.298 110.534 103.991 111.471 101.466 111.471C95.9482 111.471 91.4751 106.998 91.4751 101.48Z" fill="#78788C"/>
<rect x="129.93" y="87.9854" width="92.9083" height="8.74119" fill="#E6E6EA"/>
<rect x="129.93" y="103.719" width="339.739" height="17.4824" fill="#F4F4F6"/>
<rect width="86.8993" height="17.4824" transform="matrix(-1 0 0 1 571.36 103.719)" fill="#AFAFBB"/>
</g>
<defs>
<filter id="filter0_d_704_39262" x="452.479" y="141.306" width="149.474" height="244.316" filterUnits="userSpaceOnUse" color-interpolation-filters="sRGB">
<feFlood flood-opacity="0" result="BackgroundImageFix"/>
<feColorMatrix in="SourceAlpha" type="matrix" values="0 0 0 0 0 0 0 0 0 0 0 0 0 0 0 0 0 0 127 0" result="hardAlpha"/>
<feOffset/>
<feGaussianBlur stdDeviation="1.31118"/>
<feComposite in2="hardAlpha" operator="out"/>
<feColorMatrix type="matrix" values="0 0 0 0 0 0 0 0 0 0 0 0 0 0 0 0 0 0 0.1 0"/>
<feBlend mode="normal" in2="BackgroundImageFix" result="effect1_dropShadow_704_39262"/>
<feBlend mode="normal" in="SourceGraphic" in2="effect1_dropShadow_704_39262" result="shape"/>
</filter>
<filter id="filter1_d_704_39262" x="299.071" y="141.306" width="149.474" height="91.3453" filterUnits="userSpaceOnUse" color-interpolation-filters="sRGB">
<feFlood flood-opacity="0" result="BackgroundImageFix"/>
<feColorMatrix in="SourceAlpha" type="matrix" values="0 0 0 0 0 0 0 0 0 0 0 0 0 0 0 0 0 0 127 0" result="hardAlpha"/>
<feOffset/>
<feGaussianBlur stdDeviation="1.31118"/>
<feComposite in2="hardAlpha" operator="out"/>
<feColorMatrix type="matrix" values="0 0 0 0 0 0 0 0 0 0 0 0 0 0 0 0 0 0 0.1 0"/>
<feBlend mode="normal" in2="BackgroundImageFix" result="effect1_dropShadow_704_39262"/>
<feBlend mode="normal" in="SourceGraphic" in2="effect1_dropShadow_704_39262" result="shape"/>
</filter>
<filter id="filter2_d_704_39262" x="299.071" y="236.148" width="149.245" height="149.245" filterUnits="userSpaceOnUse" color-interpolation-filters="sRGB">
<feFlood flood-opacity="0" result="BackgroundImageFix"/>
<feColorMatrix in="SourceAlpha" type="matrix" values="0 0 0 0 0 0 0 0 0 0 0 0 0 0 0 0 0 0 127 0" result="hardAlpha"/>
<feOffset/>
<feGaussianBlur stdDeviation="1.31118"/>
<feComposite in2="hardAlpha" operator="out"/>
<feColorMatrix type="matrix" values="0 0 0 0 0 0 0 0 0 0 0 0 0 0 0 0 0 0 0.1 0"/>
<feBlend mode="normal" in2="BackgroundImageFix" result="effect1_dropShadow_704_39262"/>
<feBlend mode="normal" in="SourceGraphic" in2="effect1_dropShadow_704_39262" result="shape"/>
</filter>
<filter id="filter3_d_704_39262" x="57.3776" y="141.306" width="237.76" height="243.879" filterUnits="userSpaceOnUse" color-interpolation-filters="sRGB">
<feFlood flood-opacity="0" result="BackgroundImageFix"/>
<feColorMatrix in="SourceAlpha" type="matrix" values="0 0 0 0 0 0 0 0 0 0 0 0 0 0 0 0 0 0 127 0" result="hardAlpha"/>
<feOffset/>
<feGaussianBlur stdDeviation="1.31118"/>
<feComposite in2="hardAlpha" operator="out"/>
<feColorMatrix type="matrix" values="0 0 0 0 0 0 0 0 0 0 0 0 0 0 0 0 0 0 0.1 0"/>
<feBlend mode="normal" in2="BackgroundImageFix" result="effect1_dropShadow_704_39262"/>
<feBlend mode="normal" in="SourceGraphic" in2="effect1_dropShadow_704_39262" result="shape"/>
</filter>
<clipPath id="clip0_704_39262">
<rect width="116.258" height="209.788" fill="white" transform="translate(469.087 158.57)"/>
</clipPath>
<clipPath id="clip1_704_39262">
<rect width="116.258" height="209.788" fill="white" transform="translate(469.087 158.57)"/>
</clipPath>
<clipPath id="clip2_704_39262">
<rect width="116.258" height="58.1289" fill="white" transform="translate(315.679 157.915)"/>
</clipPath>
<clipPath id="clip3_704_39262">
<rect width="116.258" height="58.1289" fill="white" transform="translate(315.679 157.915)"/>
</clipPath>
<clipPath id="clip4_704_39262">
<rect width="116.258" height="116.258" fill="white" transform="translate(315.679 252.757)"/>
</clipPath>
<clipPath id="clip5_704_39262">
<rect width="204.544" height="210.663" fill="white" transform="translate(73.9858 157.915)"/>
</clipPath>
<clipPath id="clip6_704_39262">
<rect width="204.544" height="210.663" fill="white" transform="translate(73.9858 157.915)"/>
</clipPath>
</defs>
</svg>
