<!--
  - (c) 2022 CARIAD SE, All rights reserved.
  -
  - NOTICE:
  - All the information and materials contained herein, including the intellectual and technical concepts,
  - are the property of CARIAD SE and may be covered by patents, patents in process, and are protected by trade secret and/or copyright law.
  - The copyright notice above does not evidence any actual or intended publication or disclosure of this source code, which includes information and materials
  - that are confidential and/or proprietary and trade secrets of CARIAD SE.
  - Any reproduction, dissemination, modification, distribution, public performance, public display of or any other use of this source code and/or any other
  - information and/or material contained herein without the prior written consent of CARIAD SE is strictly prohibited and in violation of applicable laws.
  - The receipt or possession of this source code and/or related information does not convey or imply any rights to reproduce, disclose or distribute its
  - contents or to manufacture, use or sell anything that it may describe in whole or in part.
  -->

<svg width="100%" height="100%" viewBox="0 0 282 164" fill="none" xmlns="http://www.w3.org/2000/svg">
<path fill-rule="evenodd" clip-rule="evenodd" d="M0 164H32.8647V55.1319H0V164Z" fill="#CDCDD2"/>
<path fill-rule="evenodd" clip-rule="evenodd" d="M0 55.1319H32.8647V0H0V55.1319Z" fill="#E6E6EA"/>
<path fill-rule="evenodd" clip-rule="evenodd" d="M49.8271 164H82.6917V55.1319H49.8271V164Z" fill="#CDCDD2"/>
<path fill-rule="evenodd" clip-rule="evenodd" d="M49.8271 55.1319H82.6917V0H49.8271V55.1319Z" fill="#E6E6EA"/>
<path fill-rule="evenodd" clip-rule="evenodd" d="M99.6541 82.3489H132.519V0H99.6541V82.3489Z" fill="#E6E6EA"/>
<path fill-rule="evenodd" clip-rule="evenodd" d="M99.6541 164H132.519V82.3489H99.6541V164Z" fill="#CDCDD2"/>
<path fill-rule="evenodd" clip-rule="evenodd" d="M149.481 164H182.346V36.9872H149.481V164Z" fill="#CDCDD2"/>
<path fill-rule="evenodd" clip-rule="evenodd" d="M149.481 36.9872H182.346V0H149.481V36.9872Z" fill="#E6E6EA"/>
<path fill-rule="evenodd" clip-rule="evenodd" d="M199.308 164H232.173V36.9872H199.308V164Z" fill="#CDCDD2"/>
<path fill-rule="evenodd" clip-rule="evenodd" d="M199.308 36.9872H232.173V0H199.308V36.9872Z" fill="#E6E6EA"/>
<path fill-rule="evenodd" clip-rule="evenodd" d="M249.135 164H282V84.4425H249.135V164Z" fill="#CDCDD2"/>
<path fill-rule="evenodd" clip-rule="evenodd" d="M249.135 84.4425H282V0H249.135V84.4425Z" fill="#E6E6EA"/>
</svg>
