<?xml version="1.0" encoding="utf-8"?>
<!--
  - (c) 2022 CARIAD SE, All rights reserved.
  -
  - NOTICE:
  - All the information and materials contained herein, including the intellectual and technical concepts,
  - are the property of CARIAD SE and may be covered by patents, patents in process, and are protected by trade secret and/or copyright law.
  - The copyright notice above does not evidence any actual or intended publication or disclosure of this source code, which includes information and materials
  - that are confidential and/or proprietary and trade secrets of CARIAD SE.
  - Any reproduction, dissemination, modification, distribution, public performance, public display of or any other use of this source code and/or any other
  - information and/or material contained herein without the prior written consent of CARIAD SE is strictly prohibited and in violation of applicable laws.
  - The receipt or possession of this source code and/or related information does not convey or imply any rights to reproduce, disclose or distribute its
  - contents or to manufacture, use or sell anything that it may describe in whole or in part.
  -->

<!-- Generator: Adobe Illustrator 24.3.0, SVG Export Plug-In . SVG Version: 6.00 Build 0)  -->
<svg xmlns:xlink="http://www.w3.org/1999/xlink" version="1.1" id="Ebene_1" xmlns="http://www.w3.org/2000/svg" x="0px"
     y="0px"
     viewBox="0 0 78 70" style="enable-background:new 0 0 78 70;" xml:space="preserve">
<style type="text/css">
	.st0{clip-path:url(#SVGID_2_);fill:#FFFFFF;}
	.st1{clip-path:url(#SVGID_2_);}
</style>
    <g>
	<defs>
		<rect id="SVGID_1_" width="78" height="70"/>
	</defs>
        <clipPath id="SVGID_2_">
		<use xlink:href="#SVGID_1_" style="overflow:visible;"/>
	</clipPath>
        <path class="st1" d="M38.4,49.3c-8.2,0-14.9-6.7-14.9-14.9c0-1.8,0.3-3.6,0.9-5.2l8.7,17.5c0.1,0.2,0.3,0.4,0.5,0.4
		c0.3,0,0.4-0.2,0.5-0.4l4-9c0-0.1,0.1-0.2,0.2-0.2c0.1,0,0.1,0.1,0.2,0.2l4,9c0.1,0.2,0.3,0.4,0.5,0.4s0.4-0.2,0.5-0.4l8.7-17.5
		c0.6,1.6,1,3.4,1,5.2C53.3,42.6,46.6,49.3,38.4,49.3 M38.4,31c-0.1,0-0.1-0.1-0.2-0.2l-4.7-10.5c1.5-0.6,3.2-0.9,4.9-0.9
		c1.7,0,3.3,0.3,4.9,0.9l-4.7,10.5C38.5,31,38.5,31,38.4,31 M33.7,41.8c-0.1,0-0.1-0.1-0.2-0.2l-7.5-15.2c1.3-2.1,3.2-3.8,5.3-5
		l5.4,12.1c0.1,0.2,0.2,0.3,0.4,0.3h2.6c0.2,0,0.3,0,0.4-0.3l5.4-12.1c2.2,1.2,4,3,5.3,5l-7.6,15.2c0,0.1-0.1,0.2-0.2,0.2
		c-0.1,0-0.1-0.1-0.2-0.2l-2.9-6.5c-0.1-0.2-0.2-0.3-0.4-0.3H37c-0.2,0-0.3,0-0.4,0.3l-2.8,6.5C33.8,41.7,33.7,41.8,33.7,41.8
		 M38.4,50.8c9.1,0,16.4-7.3,16.4-16.4S47.5,18,38.4,18S22,25.3,22,34.4S29.3,50.8,38.4,50.8"/>
</g>
</svg>
