<?xml version="1.0" encoding="utf-8"?>
<!--
  - (c) 2022 CARIAD SE, All rights reserved.
  -
  - NOTICE:
  - All the information and materials contained herein, including the intellectual and technical concepts,
  - are the property of CARIAD SE and may be covered by patents, patents in process, and are protected by trade secret and/or copyright law.
  - The copyright notice above does not evidence any actual or intended publication or disclosure of this source code, which includes information and materials
  - that are confidential and/or proprietary and trade secrets of CARIAD SE.
  - Any reproduction, dissemination, modification, distribution, public performance, public display of or any other use of this source code and/or any other
  - information and/or material contained herein without the prior written consent of CARIAD SE is strictly prohibited and in violation of applicable laws.
  - The receipt or possession of this source code and/or related information does not convey or imply any rights to reproduce, disclose or distribute its
  - contents or to manufacture, use or sell anything that it may describe in whole or in part.
  -->

<!-- Generator: Adobe Illustrator 24.3.0, SVG Export Plug-In . SVG Version: 6.00 Build 0)  -->
<svg viewBox="-12 -12 48 48" fill="none" xmlns="http://www.w3.org/2000/svg">
<path d="M20.3834 16.8971C20.165 17.5145 19.9634 18.0815 19.7618 18.6485C19.3754 19.7363 18.9848 20.8199 18.6111 21.9077C18.5523 22.0757 18.4725 22.1345 18.3003 22.1303C17.9055 22.1177 17.5149 22.1261 17.0949 22.1261C16.9017 21.1475 16.7127 20.1815 16.5195 19.2197C16.4985 19.2197 16.4817 19.2197 16.4607 19.2155C16.2717 20.1773 16.0827 21.1433 15.8895 22.1261C15.4401 22.1261 15.0117 22.1303 14.5833 22.1219C14.5245 22.1219 14.4321 22.0547 14.4111 22.0001C13.8105 20.3243 13.2141 18.6401 12.5967 16.9055C13.0125 16.9055 13.3905 16.8971 13.7685 16.9139C13.8273 16.9181 13.8987 17.0483 13.9281 17.1323C14.2809 18.1151 14.6295 19.0979 14.9781 20.0807C15.0117 20.1731 15.0495 20.2613 15.1461 20.3537C15.1671 20.2739 15.1965 20.1941 15.2133 20.1101C15.4107 19.1147 15.6123 18.1193 15.7971 17.1197C15.8307 16.9475 15.8979 16.8887 16.0659 16.8971C16.3599 16.9055 16.6539 16.9055 16.9437 16.8971C17.1033 16.8929 17.1579 16.9517 17.1873 17.1113C17.3763 18.1193 17.5737 19.1231 17.7711 20.1269C17.7879 20.2025 17.8089 20.2781 17.8887 20.3621C17.9307 20.2571 17.9769 20.1521 18.0147 20.0429C18.3255 19.1651 18.6363 18.2831 18.947 17.4011C19.1108 16.9433 19.1696 16.9013 19.6652 16.8971C19.8836 16.8971 20.102 16.8971 20.3834 16.8971Z" fill="black"/>
<path d="M13.3989 22.1303C13.0293 22.1303 12.6639 22.1387 12.2985 22.1219C12.2271 22.1177 12.1305 22.0295 12.1011 21.9581C11.9793 21.6641 11.8743 21.3575 11.7777 21.0551C11.7315 20.9123 11.6601 20.8535 11.5005 20.8577C10.9041 20.8661 10.3119 20.8661 9.71549 20.8577C9.56009 20.8577 9.48449 20.9081 9.43829 21.0551C9.34169 21.3575 9.23249 21.6599 9.11069 21.9539C9.07709 22.0295 8.96789 22.1177 8.88809 22.1219C8.53109 22.1387 8.17409 22.1303 7.7793 22.1303C7.8087 22.0253 7.8297 21.9413 7.8591 21.8615C8.37989 20.3873 8.90489 18.9174 9.42569 17.4432C9.58109 17.0106 9.71969 16.9056 10.1691 16.9014C10.5807 16.893 10.9923 16.893 11.4039 16.9056C11.4879 16.9098 11.6181 16.9854 11.6433 17.0568C12.2397 18.7242 12.8277 20.3957 13.4157 22.0673C13.4199 22.0757 13.4115 22.0841 13.3989 22.1303ZM9.79949 20.0429C10.3497 20.0429 10.8579 20.0429 11.4081 20.0429C11.1477 19.308 10.8957 18.594 10.6437 17.88C10.6143 17.88 10.5849 17.8842 10.5555 17.8842C10.3077 18.594 10.0599 19.3038 9.79949 20.0429Z" fill="black"/>
<path d="M4.90707 22.1178C4.47868 22.1178 4.08808 22.1178 3.67228 22.1178C3.66388 22.038 3.65128 21.9582 3.65128 21.8826C3.65128 20.4714 3.64708 19.0602 3.65128 17.6532C3.65128 17.124 3.84868 16.9098 4.37368 16.9056C5.73867 16.8972 7.10366 16.9014 8.46866 16.9014C8.51486 16.9014 8.55686 16.9098 8.63666 16.9224C8.56106 17.1492 8.50226 17.3718 8.40566 17.5692C8.37206 17.6364 8.23346 17.6826 8.14106 17.6826C7.22546 17.691 6.30987 17.6868 5.39427 17.6868C4.97847 17.6868 4.91547 17.754 4.91127 18.1614C4.91127 18.3252 4.91127 18.4932 4.91127 18.657C4.91127 19.0182 4.91127 19.0182 5.25987 19.0182C6.02007 19.0182 6.78027 19.0182 7.54046 19.0182C7.64126 19.0182 7.74206 19.0182 7.89746 19.0182C7.78826 19.3206 7.69586 19.5894 7.59506 19.8666C6.81386 19.8666 6.04527 19.8666 5.27667 19.8666C4.91127 19.8666 4.91127 19.8666 4.91127 20.2446C4.90707 20.8578 4.90707 21.471 4.90707 22.1178Z" fill="black"/>
<path d="M2.0042 7.8966C2.021 7.7622 2.0378 7.6278 2.0588 7.4934C2.1932 6.62821 2.5796 5.88481 3.13399 5.22121C3.79339 4.43582 4.60399 3.84362 5.50278 3.36482C6.69558 2.73062 7.96817 2.33163 9.29536 2.10063C10.2614 1.93263 11.24 1.85283 12.2186 1.86963C14.1673 1.90323 16.0573 2.24343 17.8507 3.04562C18.8461 3.49082 19.7617 4.06202 20.5303 4.84321C21.1519 5.47321 21.6265 6.19141 21.8575 7.0524C22.1473 8.1318 21.9877 9.15659 21.4459 10.1268C20.9503 11.0214 20.2279 11.706 19.3921 12.273C18.2371 13.0626 16.9561 13.5624 15.6037 13.89C14.7427 14.1 13.8649 14.226 12.9787 14.2764C12.7813 14.289 12.5797 14.3016 12.3823 14.3142C12.1304 14.3142 11.8742 14.3142 11.6222 14.3142C11.576 14.31 11.5298 14.2974 11.4836 14.2974C10.7024 14.2764 9.92956 14.1924 9.16096 14.0496C7.87157 13.8102 6.63258 13.4154 5.47338 12.7938C4.58719 12.315 3.78079 11.7312 3.12979 10.95C2.5754 10.2864 2.189 9.54299 2.0546 8.6778C2.0336 8.5434 2.0168 8.409 2 8.2746C2.0042 8.1486 2.0042 8.0226 2.0042 7.8966ZM11.7314 13.7808C13.2097 13.7808 14.4109 13.6506 15.5869 13.3566C16.7923 13.0584 17.9347 12.6174 18.9763 11.9328C19.7323 11.4372 20.3917 10.845 20.8705 10.0722C21.3913 9.22799 21.5929 8.3208 21.3829 7.338C21.2149 6.56521 20.8201 5.91421 20.2909 5.33881C19.6441 4.63741 18.8671 4.10822 18.0145 3.69242C16.3849 2.89022 14.6461 2.52063 12.8443 2.41983C12.1177 2.37783 11.3912 2.39463 10.6688 2.45343C9.93796 2.51643 9.21556 2.62563 8.50157 2.79782C7.27097 3.09602 6.09918 3.54122 5.03239 4.23842C4.27219 4.73402 3.60859 5.32621 3.12979 6.10741C2.4998 7.1364 2.3528 8.2242 2.7812 9.36659C3.04999 10.0848 3.50779 10.6728 4.06639 11.1852C4.90639 11.958 5.88918 12.4956 6.95178 12.8988C8.57717 13.5162 10.2656 13.7724 11.7314 13.7808Z" fill="black"/>
<path d="M13.9071 11.1558C13.9071 11.5128 13.9071 11.853 13.9071 12.1932C13.9071 12.3654 13.8861 12.3864 13.7139 12.3864C12.5757 12.3864 11.4417 12.3864 10.3035 12.3864C10.1313 12.3864 10.1103 12.3612 10.1103 12.189C10.1103 11.8488 10.1103 11.5086 10.1103 11.16C10.0725 11.16 10.0305 11.1558 9.98851 11.1558C9.05612 11.1558 8.12372 11.1558 7.18713 11.1558C6.75873 11.1558 6.43533 10.9542 6.19593 10.614C6.02793 10.3746 5.87673 10.1226 5.71713 9.87477C5.71293 9.86637 5.70454 9.85797 5.70034 9.84957C5.61214 9.70257 5.62474 9.61857 5.75913 9.50937C5.72133 9.48417 5.67934 9.45897 5.64574 9.43377C5.46934 9.31197 5.32234 9.16917 5.20474 8.98857C5.06194 8.76597 4.91914 8.53918 4.77634 8.31658C4.67134 8.14858 4.67554 8.09818 4.83094 7.95958C4.80574 7.94698 4.78474 7.93438 4.76374 7.92178C4.59154 7.82518 4.44874 7.70338 4.34374 7.53538C4.02034 7.01458 3.69275 6.49799 3.36935 5.97719C3.35255 5.94779 3.33575 5.92259 3.31055 5.87639C5.58274 5.87639 7.83812 5.87639 10.1103 5.87639C10.1103 5.77139 10.1061 5.67899 10.1103 5.59079C10.1355 5.16239 10.3329 4.83899 10.7151 4.64999C10.9671 4.52399 11.2317 4.4232 11.5005 4.335C11.6559 4.2846 11.8281 4.2804 11.9961 4.2804C12.3573 4.272 12.7227 4.2762 13.0839 4.2762C13.2225 4.2762 13.2561 4.3098 13.2561 4.4442C13.2561 4.87679 13.2561 5.30939 13.2561 5.74199C13.2561 5.77979 13.2561 5.82179 13.2561 5.86799C15.7383 5.86799 18.2121 5.86799 20.6985 5.86799C20.6733 5.91419 20.6565 5.94359 20.6355 5.97719C20.3163 6.48959 19.9929 6.99778 19.6779 7.51018C19.5645 7.69498 19.4133 7.83358 19.2201 7.93018C19.2075 7.93858 19.1907 7.94698 19.1781 7.95538C19.3335 8.10238 19.3377 8.14438 19.2243 8.32498C19.0941 8.52657 18.9639 8.72817 18.8379 8.92977C18.6951 9.15657 18.5145 9.34137 18.2835 9.47997C18.2709 9.48837 18.2625 9.49677 18.2541 9.50517C18.3927 9.63537 18.4011 9.70677 18.2961 9.86637C18.1407 10.11 17.9895 10.3578 17.8257 10.5972C17.5821 10.95 17.2503 11.1516 16.8093 11.1516C15.8853 11.1474 14.9613 11.1516 14.0415 11.1516C13.9995 11.1558 13.9575 11.1558 13.9071 11.1558ZM10.7571 6.51478C8.64452 6.51478 6.54873 6.51478 4.44034 6.51478C4.57894 6.73738 4.71754 6.94318 4.83934 7.15738C4.95694 7.36318 5.14174 7.43458 5.35174 7.43458C6.56553 7.43878 7.77932 7.43878 8.99312 7.43878C9.06032 7.43878 9.12752 7.43038 9.19052 7.44718C9.26612 7.46398 9.36692 7.48498 9.40472 7.53958C9.51392 7.69918 9.59372 7.87138 9.70292 8.06458C8.23712 8.06458 6.80913 8.06458 5.35174 8.06458C5.52394 8.32498 5.67094 8.56858 5.84313 8.79537C5.94813 8.93397 6.10353 8.99697 6.29253 8.98857C6.57393 8.97597 6.85953 8.98437 7.14093 8.98437C7.79613 8.98437 8.45552 8.98437 9.11072 8.98437C9.24932 8.98437 9.39632 8.99697 9.47192 9.13137C9.56012 9.27837 9.62732 9.43797 9.71552 9.61017C8.57312 9.61017 7.44753 9.61017 6.31773 9.61017C6.32193 9.63537 6.32193 9.64377 6.32613 9.65217C6.46473 9.87477 6.59913 10.1016 6.74613 10.32C6.83853 10.4544 6.97293 10.5384 7.14933 10.5384C8.24972 10.5384 9.35012 10.5384 10.4505 10.5384C10.6059 10.5384 10.7571 10.3872 10.7571 10.2318C10.7571 9.03057 10.7571 7.83358 10.7571 6.63238C10.7571 6.59459 10.7571 6.56098 10.7571 6.51478ZM14.2977 9.61017C14.3817 9.43797 14.4447 9.28257 14.5329 9.14397C14.5749 9.07677 14.6631 9.03477 14.7387 9.00117C14.8017 8.97597 14.8773 8.98017 14.9445 8.98017C15.8643 8.98017 16.7841 8.97177 17.7039 8.98437C17.9685 8.98857 18.1407 8.86677 18.2709 8.66517C18.3801 8.49718 18.4851 8.32918 18.5901 8.15698C18.6069 8.12758 18.6237 8.09818 18.6489 8.04778C17.1957 8.04778 15.7719 8.04778 14.3271 8.04778C14.3775 7.93858 14.4321 7.84618 14.4699 7.74538C14.5539 7.50178 14.7261 7.42618 14.9739 7.43038C15.5199 7.44298 16.0659 7.43458 16.6119 7.43458C17.3007 7.43458 17.9937 7.43458 18.6825 7.43038C18.8421 7.43038 19.0059 7.37998 19.0983 7.25398C19.2621 7.03138 19.3965 6.78778 19.5435 6.55259C19.5519 6.53999 19.5519 6.52319 19.5603 6.50639C17.4561 6.50639 15.3603 6.50639 13.2561 6.50639C13.2561 6.55679 13.2561 6.59878 13.2561 6.64498C13.2561 7.83358 13.2561 9.02217 13.2561 10.215C13.2561 10.3914 13.3989 10.5342 13.5795 10.5342C14.6547 10.5342 15.7341 10.53 16.8093 10.5384C17.0319 10.5384 17.1831 10.4418 17.2965 10.2654C17.4183 10.0764 17.5359 9.88737 17.6535 9.69837C17.6703 9.67317 17.6787 9.64797 17.6997 9.61017C16.5657 9.61017 15.4443 9.61017 14.2977 9.61017ZM10.7445 5.88059C10.9041 5.88059 11.0511 5.88059 11.1939 5.88059C11.3535 5.88059 11.3787 5.90579 11.3787 6.06539C11.3787 7.45138 11.3703 8.83737 11.3871 10.2234C11.3913 10.5384 11.3031 10.7568 11.0469 10.9458C10.7151 11.1894 10.7235 11.2062 10.7319 11.6136C10.7319 11.6178 10.7319 11.622 10.7319 11.622C10.7277 11.7144 10.7739 11.7564 10.8663 11.7564C11.6265 11.7564 12.3867 11.7564 13.1469 11.7564C13.2393 11.7564 13.2813 11.7102 13.2813 11.622C13.2813 11.517 13.2939 11.412 13.2771 11.3112C13.2687 11.244 13.2351 11.1684 13.1889 11.1222C13.0839 11.0172 12.9621 10.9248 12.8445 10.8366C12.6891 10.7232 12.6261 10.572 12.6303 10.383C12.6345 8.79537 12.6303 7.20358 12.6303 5.61599C12.6303 5.41439 12.6303 5.21699 12.6303 5.01539C12.6303 4.95659 12.6177 4.90199 12.5463 4.90199C12.2481 4.90619 11.9373 4.87679 11.6517 4.93979C11.3787 4.99859 11.1225 5.14559 10.8621 5.27159C10.8075 5.29679 10.7571 5.38499 10.7487 5.44799C10.7319 5.58659 10.7445 5.72939 10.7445 5.88059Z" fill="black"/>
</svg>
