<?xml version="1.0" encoding="utf-8"?>
<!--
  - (c) 2022 CARIAD SE, All rights reserved.
  -
  - NOTICE:
  - All the information and materials contained herein, including the intellectual and technical concepts,
  - are the property of CARIAD SE and may be covered by patents, patents in process, and are protected by trade secret and/or copyright law.
  - The copyright notice above does not evidence any actual or intended publication or disclosure of this source code, which includes information and materials
  - that are confidential and/or proprietary and trade secrets of CARIAD SE.
  - Any reproduction, dissemination, modification, distribution, public performance, public display of or any other use of this source code and/or any other
  - information and/or material contained herein without the prior written consent of CARIAD SE is strictly prohibited and in violation of applicable laws.
  - The receipt or possession of this source code and/or related information does not convey or imply any rights to reproduce, disclose or distribute its
  - contents or to manufacture, use or sell anything that it may describe in whole or in part.
  -->

<!-- Generator: Adobe Illustrator 24.3.0, SVG Export Plug-In . SVG Version: 6.00 Build 0)  -->
<svg version="1.1" id="Ebene_1" xmlns="http://www.w3.org/2000/svg" x="0px" y="0px"
     viewBox="0 0 78 70" style="enable-background:new 0 0 78 70;" xml:space="preserve">
<style type="text/css">
	.st0{fill-rule:evenodd;clip-rule:evenodd;fill:#1D1D1B;}
</style>
    <path class="st0" d="M39.3,53.4c-6.6-3.4-12-8.2-12.3-13.9l-1.5-20.1c5.6-1.3,9-1.9,13.8-1.9V53.4z M39.3,29.6h-4.6v7.9
	c0,2.1,1.8,4.6,4.6,4.6V29.6z M39.3,53.4c6.6-3.4,12-8.2,12.3-13.9l1.5-20.1c-5.6-1.3-9-1.9-13.8-1.9V53.4z M39.3,18.1
	c5.7,0,10.8,1.2,13.2,1.8l-0.3,3.4c-6.1-1.5-9.7-1.8-12.9-1.8c-3.2,0-6.8,0.2-12.9,1.8l-0.3-3.4C28.5,19.3,33.6,18.1,39.3,18.1
	 M44.5,32.8v3.8h6.7l0.3-3.9L44.5,32.8z M51.8,29l0.3-3.9L39.6,25v3.9h4.9V29H51.8z M34.1,32.8c-0.2,0.2-0.4,0.5-0.4,0.6
	c0.1,0,0.2,0.2,0.4,0.4V32.8z M32.4,48.1c2,1.8,4.4,3.3,6.6,4.5v-4.5H32.4z M39,44.2v-1.6c-1.9-0.1-3.2-1.1-4-2.2h-7.3
	c0.2,1.3,0.7,2.6,1.4,3.8H39z M39.3,29.6H44v7.9c0,2.1-1.8,4.6-4.6,4.6V29.6H39.3z M42.5,41.6c1.4-1,2-2.6,2-3.8v-0.7h6.7L51,40.4
	c-0.8,5.5-6.5,9.7-11.4,12.3v-10c0.8,0,1.5-0.2,2.1-0.5v0.1c-0.2,0.5-0.2,0.7-0.2,0.8c0,0.2-0.3,0.2-0.3,0.2c-0.1,0-0.1-0.1-0.2-0.1
	c-0.2,0-0.4,0.2-0.4,0.4v0.1c-0.1,0.1-0.2,0.2-0.2,0.3c0,0.2,0.1,0.4,0.3,0.4c0.1,0,0.1,0,0.2,0c0.1,0.1,0.2,0.1,0.3,0.1
	c0.2,0,0.3-0.1,0.3-0.5c1.4-0.7,3.6-1.3,4.5-1.3c1.1,0.1,1.9,1.1,1.9,1.2c0.1,0.1,0.2,0.1,0.1,0c-0.1-0.4-0.2-1.1-1.3-1.7
	c0.1-0.3,0.6-0.3,0.7-0.4c0.1,0,0.1-0.1,0-0.1c-0.7-0.1-1.2,0.2-1.3,0.3c-0.1,0-0.6-0.1-0.7,0c0.1-0.4,0.3-0.6,0.6-0.9
	c0,0,0.1-0.1,0-0.1c-0.8,0.1-1.3,0.9-1.3,1.1c-0.1,0-0.9,0.2-1,0.2c0.1-0.8,1.1-1.4,1.1-1.4c0.1-0.1,0.1-0.1,0-0.1
	c-1.2,0-2,1.5-2.1,1.9c-0.2,0.1-0.5,0.2-0.6,0.2c0-0.5,0-0.7,0.1-1L42.5,41.6z M41.4,46.7c0,0.3-0.1,0.4-0.3,0.4
	c-0.1,0-0.2,0-0.2-0.1c-0.1,0-0.1,0-0.2,0c-0.2,0-0.3-0.1-0.3-0.3c0-0.1,0-0.2,0.2-0.3c0,0,0,0,0-0.1c0-0.2,0.1-0.3,0.3-0.3
	c0.1,0,0.1,0,0.2,0c0,0,0.2,0,0.3-0.2c0-0.2,0.4-1.6,1.3-1.7c0.1,0,0.1,0.1,0,0.1c0.1-0.1-0.8,0.6-0.7,1.4c0.1-0.1,0.4-0.2,0.6-0.2
	c0-0.3,0.8-1.4,1.7-1.4c0.1,0,0.1,0.1,0,0.1s-0.9,0.5-1,1.1c0.1,0,0.7-0.1,0.7-0.2c0-0.2,0.6-0.9,1.3-0.9c0.1,0,0,0.1,0,0.1
	c-0.2,0.2-0.7,0.5-0.8,0.8c0.1,0,0.5,0,0.6,0c0.1-0.1,0.5-0.4,1.1-0.3c0.1,0,0.1,0.1,0,0.1s-0.4,0.1-0.5,0.4
	c0.6,0.4,0.8,0.7,0.9,1.1c0,0.1,0,0.1-0.1,0s-0.7-0.7-1.6-0.7C44.1,45.7,42.5,46.1,41.4,46.7 M41.1,49c0,0.2-0.1,0.3-0.2,0.3
	c-0.1,0-0.1,0-0.2-0.1h-0.1c-0.1,0-0.2-0.1-0.2-0.2c0-0.1,0-0.1,0.1-0.2c0,0,0,0,0-0.1s0.1-0.2,0.2-0.2h0.1c0,0,0.2,0,0.2-0.1
	s0.1-1.1,0.7-1.2c0.1,0,0,0,0,0.1c0.1-0.1-0.3,0.4-0.2,1c0.1,0,0.2-0.1,0.3-0.1c0-0.2,0.2-1,0.9-1c0.1,0,0,0,0,0.1
	c0,0-0.3,0.3-0.4,0.8c0.1,0,0.3-0.1,0.4-0.1c0-0.1,0.5-0.7,1-0.7c0.1,0,0,0.1,0,0.1c-0.2,0.1-0.4,0.4-0.4,0.6c0.1,0,0.3,0,0.3,0
	c0.1-0.1,0.2-0.3,0.6-0.3c0.1,0,0,0.1,0,0.1c-0.1,0-0.2,0.1-0.2,0.3c0.4,0.2,0.6,0.4,0.7,0.6c0,0.1,0,0.1-0.1,0c0,0-0.5-0.3-1-0.3
	C42.9,48.3,41.8,48.6,41.1,49 M35.5,36.6c0-0.1,0.2-0.3,0.2-0.4c0-0.1,0-0.1,0-0.2c0.1-0.1,0.2-0.2,0.3-0.3s0.2-0.1,0.3,0.1
	c0.1,0.2,0.3,0.7,0.6,0.8c-0.1,0.1-0.4,0.2-0.6,0.2c-0.2,0-0.3,0.1-0.2,0.5s0.1,0.6,0.1,0.7c0,0.1,0,0.4,0.2,0.6l0.2,0.3
	c0.1,0.1,0.3,0.2,0.3,0s0.1-0.3-0.1-0.4c-0.1,0-0.2-0.1-0.2-0.3s0-0.3-0.1-0.4c-0.1-0.1-0.1-0.3-0.1-0.4c0-0.1,0.1-0.2,0.3-0.2
	c0.2,0.1,1,0.3,1.2,0c0.2,0.1,1.1,0.5,1.7,0.4c0.1,0.2,0.3,0.6,0.5,0.7c0.1,0.1,0.2,0.4,0,0.6c-0.1,0.1-0.4,0.4-0.6,0.5
	c-0.2,0.1-0.3,0.1-0.5,0.2c-0.1,0.1-0.2,0.1-0.3,0.3c-0.1,0.1-0.2,0.4,0,0.4c0.3,0,0.3-0.1,0.3-0.2c0-0.1,0-0.2,0.1-0.2
	s0.4,0,0.6-0.3c0.2-0.2,0.6-0.4,0.8-0.4s0.2-0.2,0.2-0.3s0-0.3,0.1-0.4c0.1,0,0.6,0.1,0.8,0.4c0,0.1,0,0.1,0.1,0.2
	c-0.1,0.1-0.2,0.2-0.2,0.3s-0.1,0.3-0.3,0.4c-0.2,0.2-0.4,0.3-0.5,0.4c-0.1,0.1-0.2,0.3-0.1,0.5c0,0.2,0.1,0.1,0.2,0.1
	c0.1,0,0.3-0.1,0.3-0.2c0-0.1-0.1-0.2,0.1-0.3c0.2-0.1,0.5-0.3,0.6-0.5s0.3-0.5,0.4-0.6c0.2-0.1,0.1-0.2,0.1-0.4
	C42.2,38.7,42,38.3,42,38c0.1-0.2,0.3-0.4,0.4-0.8c0.1-0.4,0-0.5,0-0.7c0.1,0,0.2,0,0.4,0.1s0.6,0.1,0.7-0.1c0.1-0.1,0-0.4,0-0.4
	c0.1-0.1,0.2-0.3,0.1-0.4c-0.1-0.1-0.1-0.2-0.1-0.4c-0.1,0-0.3-0.1-0.2-0.2c0.1-0.1,0.3-0.3,0.2-0.5c0-0.1,0-0.3-0.2-0.3
	c0-0.1-0.1-0.4-0.5-0.1c-0.1,0-0.1-0.1,0-0.1s0.5-0.2,0.6-0.3c0.1-0.2,0-0.2,0-0.3s0.1-0.2,0-0.3c0-0.1-0.2,0-0.3,0.2
	s-0.1,0.2-0.3,0.3c-0.3,0-0.4,0-0.6,0.3c-0.1,0.1-0.1,0.1-0.2,0.2c-0.1,0.1-0.2,0.2-0.2,0.3s0.1,0.3,0.1,0.4c0,0.1-0.1,0.4,0.2,0.7
	c0.2,0.2,0.4,0.4,0.2,0.6c-0.2,0.2-0.3,0-0.5-0.1c-0.1,0-0.6-0.1-0.8-0.1c-0.3,0-1.2-0.2-1.4-0.4s-0.1-0.3,0-0.3s0.1-0.1,0.2-0.2
	c0-0.1,0.1-0.1,0.2-0.1c0.1,0,0.2,0,0.2-0.2c0.1-0.2,0.1-0.1,0.2-0.1c0.1,0,0.1-0.2,0-0.2c-0.1-0.1-0.2-0.1-0.2-0.2
	c0-0.1,0.1-0.2,0.2-0.2c0.1,0,0.1-0.1,0.1-0.2c0-0.1,0-0.1,0.1-0.2c0.1,0,0.1-0.1-0.1-0.2c-0.1,0-0.4-0.1-0.4-0.2
	c0-0.1,0.1-0.2,0.2-0.2c0.1,0,0.1-0.2-0.1-0.2c-0.2,0-0.3,0-0.4-0.1c0-0.1-0.1-0.2,0.2-0.3c0.1,0,0.1-0.2-0.1-0.1
	c-0.2,0-0.4,0.1-0.4,0c-0.1-0.1,0-0.1,0-0.1v-0.1c-0.1,0-0.4,0.1-0.5,0s-0.2-0.1-0.3-0.1c-0.1,0.1-0.1,0.2-0.1,0.2
	c0.1,0.1,0,0.2-0.1,0.1c-0.1-0.1,0-0.1,0-0.1l-0.1-0.1c-0.1,0-0.1-0.1,0-0.2c0-0.1-0.1-0.1-0.2-0.1c-0.1,0.1-0.2,0.2-0.1,0.3
	c-0.1,0-0.4,0.1-0.4,0.2c0,0.1,0,0.2,0,0.2s-0.1,0-0.2,0.1C37.4,32.8,37.1,33,37,33c-0.1,0.1-0.1,0.1-0.2,0.2
	c-0.1,0.1-0.1,0.2-0.1,0.2c0.1,0.1,0.2,0,0.2,0.1c0.1,0.1,0.1,0.1,0,0.1c0,0,0.1,0.1,0.3,0s0.3-0.3,0.4-0.1c0.1,0.1,0,0.2,0,0.3
	c-0.1,0.1-0.3,0.4-0.5,0.5c0,0.4-0.1,0.7-0.1,0.9s-0.1,0.3-0.1,0.3c-0.2-0.1-0.4-0.2-0.6-0.3c-0.1-0.1-0.3-0.2-0.4,0
	c-0.1,0.1-0.4,0.5-0.5,0.7s-0.2,0.1-0.2,0.5c0,0.1-0.1,0.2-0.1,0.4c0,0.1-0.1,0.4,0,0.4c0.1,0.1,0.3,0,0.3-0.1
	C35.5,37,35.5,36.7,35.5,36.6 M34.1,29H39v-6.8c-2.7,0-6.5,0.2-12.6,1.8l1,12.6h6.7v-2.3c-0.2-0.1-0.5-0.4-1.3-0.4
	c-0.5,0-2,0.5-2.8,1.5c0,0.4-0.2,0.5-0.4,0.5c-0.1,0-0.2,0-0.2-0.1c-0.1,0-0.1,0.1-0.2,0.1c-0.2,0-0.3-0.1-0.3-0.3
	c0-0.1,0.1-0.3,0.2-0.3c0,0,0,0,0-0.1c0-0.2,0.1-0.3,0.3-0.3c0.1,0,0.1,0,0.2,0c0,0,0.2,0.1,0.2-0.1c0-0.2,0-2,1-2.3
	c0.1,0,0.1,0.1,0,0.1c0,0-0.5,0.8-0.4,1.7c0.1-0.1,0.4-0.3,0.5-0.3c0-0.2,0.4-1.7,1.2-1.7c0.1,0,0.1,0.1,0,0.1s-0.4,0.5-0.5,1.2
	c0.1,0,0.4-0.1,0.5-0.1c0-0.2,0.4-1.2,1-1.2c0.1,0,0,0.1,0,0.1s-0.4,0.5-0.5,1c0.1,0,0.4,0,0.5,0c0.1-0.1,0.6-0.7,1.1-0.9v-2.1
	c-0.1-0.1-0.2-0.2-0.7-0.2c-0.7,0-1.8,0.3-3.4,1.3c0,0.5-0.3,0.7-0.5,0.7c-0.1,0-0.2-0.1-0.3-0.1c-0.1,0.1-0.2,0.1-0.3,0.1
	c-0.2,0-0.4-0.2-0.4-0.4c0-0.2,0.1-0.3,0.3-0.4v-0.1c0-0.2,0.2-0.4,0.4-0.4c0.1,0,0.2,0,0.2,0.1c0.1,0,0.3,0.1,0.3-0.1
	c0-0.3,0.4-2.4,1.7-2.6c0.1,0,0.1,0.1,0,0.1c-0.1,0.1-1.1,0.9-1,2.2c0.2-0.1,0.6-0.3,0.8-0.4c0.1-0.3,0.6-1.9,1.7-1.9
	c0.1,0,0.1,0.1,0,0.2S32.3,29,32.2,30c0.2,0,0.6-0.2,0.7-0.2c0.1-0.2,0.5-1.2,1.3-1.2c0.1,0,0.1,0.1,0,0.2c0,0-0.5,0.4-0.6,1
	c0.1,0,0.3,0,0.4,0.1L34.1,29z M29.9,27.8c0,0.5-0.3,0.7-0.6,0.7c-0.1,0-0.3-0.1-0.4-0.2c-0.1,0.1-0.2,0.1-0.3,0.1
	c-0.3,0-0.5-0.2-0.5-0.5c0-0.2,0.1-0.4,0.3-0.5v-0.1c0-0.3,0.2-0.5,0.5-0.5c0.1,0,0.2,0,0.2,0.1c0.1,0,0.3,0.1,0.3-0.1
	c0-0.3,0.4-2.8,1.9-3c0.2,0,0.1,0.1,0,0.2s-1.2,1-1.1,2.5c0.2-0.1,0.8-0.4,1-0.5c0.1-0.4,0.6-2.3,1.9-2.3c0.1,0,0.1,0.1,0,0.2
	s-0.9,0.7-1,1.8c0.2-0.1,0.7-0.1,0.8-0.2c0.1-0.3,0.6-1.5,1.6-1.6c0.1,0,0.1,0.1,0,0.1c-0.1,0.1-0.7,0.6-0.7,1.3c0.2,0,0.7,0,0.8,0
	c0.1-0.2,0.6-0.7,1.4-0.8c0.1,0,0.1,0.1,0,0.2s-0.5,0.5-0.6,0.8c0.3,0.1,1,0.6,1.1,1.2c0,0.1-0.1,0.1-0.2,0.1
	c-0.1-0.1-0.9-0.7-1.9-0.7S31.6,26.6,29.9,27.8 M37.4,20.7v0.4h-0.6v-0.4c0-0.3-0.2-0.6-0.5-0.5l-1.7,0.1v1H34v-2.4l2.5-0.2
	c0.5,0,0.9,0.1,0.9,0.7c0,0.2-0.1,0.4-0.2,0.5C37.3,20.1,37.4,20.3,37.4,20.7 M26.8,22.8l-0.2-2.4l2.5-0.6c0.3-0.1,0.8,0,0.8,0.5
	c0,0.6-0.1,0.8-0.5,0.9l-2.1,0.5l0.1,1L26.8,22.8z M27.3,20.8v0.4l1.7-0.4c0.1,0,0.2-0.2,0.2-0.2c0-0.1-0.1-0.1-0.2-0.1
	C28.8,20.5,27.3,20.8,27.3,20.8 M30.2,20.1c0-0.2,0-0.6,0.6-0.6l2-0.3c0.2,0,0.8,0.1,0.8,0.6V21c0,0.2,0,0.6-0.7,0.7L31,22
	c-0.3,0.1-0.9,0-0.9-0.6L30.2,20.1z M30.9,20.4C30.9,20.4,30.9,20.5,30.9,20.4s0-0.4,0.3-0.4l1.5-0.3c0.2,0,0.3,0.1,0.3,0.3v0.7
	c0,0.1-0.1,0.3-0.3,0.3l-1.5,0.2c-0.2,0-0.3,0-0.4-0.2L30.9,20.4z M38.7,19.6c-0.1,0-0.2-0.1-0.2-0.2s0.1-0.2,0.2-0.2h2.4v-0.5h-2.7
	c-0.1,0-0.6,0-0.6,0.7s0.5,0.7,0.6,0.7h1.9c0.1,0,0.2,0.1,0.2,0.2s-0.1,0.2-0.2,0.2h-2.4V21h2.7c0.2,0,0.6,0,0.6-0.7
	s-0.5-0.7-0.6-0.7C40.6,19.6,38.7,19.6,38.7,19.6z M45.4,19l-0.1,2.5h0.5l0.1-1l2,0.4l-0.1,1l0.6,0.1l0.2-2.5L48,19.4l-0.1,1l-2-0.4
	l0.1-0.9L45.4,19z M48.9,22.1l0.2-2.5l2.7,0.6v0.5l-2.2-0.5v0.5l2.2,0.5l-0.1,0.4l-2.1-0.4l-0.1,0.5l2.2,0.4v0.5L48.9,22.1z
	 M44.9,19.5V19l-2.5-0.2c-0.2,0-0.6,0-0.7,0.7c0,0.7-0.1,1-0.1,1c0,0.2,0.1,0.6,0.6,0.7l2.5,0.2v-0.5l-2.1-0.2
	c-0.2,0-0.4-0.1-0.4-0.4v-0.5c0-0.2,0.1-0.4,0.4-0.4L44.9,19.5z M36.4,19.7l-1.8,0.1v-0.4l1.8-0.1c0.1,0,0.2,0.1,0.2,0.2
	C36.6,19.6,36.5,19.7,36.4,19.7 M35.3,31.1c0,0.1,0.1,0.2,0.2,0.2c0.1,0,0.2-0.1,0.2-0.1s0-0.1-0.1-0.1L35.3,31
	c-0.1-0.1-0.2-0.2-0.2-0.3c0-0.2,0.2-0.4,0.4-0.4c0.3,0,0.4,0.1,0.4,0.4h-0.2c0-0.1-0.1-0.2-0.2-0.2c-0.1,0-0.2,0.1-0.2,0.1
	s0,0.1,0.1,0.1l0.3,0.2c0.1,0.1,0.2,0.1,0.2,0.3c0,0.1,0,0.2-0.1,0.3c-0.1,0.1-0.2,0.1-0.3,0.1c-0.2,0-0.3-0.1-0.4-0.2
	c0-0.1-0.1-0.1-0.1-0.2L35.3,31.1L35.3,31.1z M36.8,30.2v0.2h-0.3v1.1h-0.2v-1.1H36v-0.2H36.8z M37.8,30.2V31c0,0.3-0.1,0.5-0.4,0.5
	c-0.3,0-0.4-0.2-0.4-0.5v-0.8h0.2V31c0,0.2,0.1,0.3,0.2,0.3c0.2,0,0.2-0.1,0.2-0.3v-0.8H37.8z M38.8,30.2v0.2h-0.3v1.1h-0.2v-1.1
	h-0.4v-0.2H38.8z M40.2,30.8h0.4v0.7h-0.1v-0.2c-0.1,0.1-0.2,0.2-0.3,0.2c-0.3,0-0.5-0.3-0.5-0.6c0-0.4,0.2-0.7,0.5-0.7
	c0.2,0,0.4,0.2,0.4,0.4h-0.2c0-0.1-0.1-0.2-0.2-0.2c-0.2,0-0.3,0.2-0.3,0.4c0,0.3,0.1,0.4,0.3,0.4c0.1,0,0.2-0.1,0.2-0.3L40.2,30.8
	C40.2,30.9,40.2,30.8,40.2,30.8z M41.1,30.2h0.3l0.3,1.3h-0.2l-0.1-0.3H41v0.3h-0.2L41.1,30.2z M42.3,30.2c0.1,0,0.2,0,0.3,0.1
	s0.1,0.2,0.1,0.3c0,0.1,0,0.2-0.1,0.3c0.1,0.1,0.1,0.1,0.1,0.3c0,0.2,0,0.2,0,0.3h-0.2c0-0.1,0-0.1,0-0.2c0-0.2,0-0.3-0.2-0.3h-0.2
	v0.5h-0.2v-1.3C41.9,30.2,42.3,30.2,42.3,30.2z M43.6,30.2v0.2h-0.3v1.1h-0.2v-1.1h-0.3v-0.2H43.6z M39.7,30.2v0.2h-0.3v1.1h-0.2
	v-1.1h-0.3v-0.2H39.7z M41.4,31l-0.2-0.5L41.1,31H41.4z M42.1,30.8h0.2c0.1,0,0.2,0,0.2-0.2c0-0.1,0-0.2-0.2-0.2h-0.2V30.8z"/>
</svg>
