<?xml version="1.0" encoding="UTF-8"?>
<!--
  - (c) 2022 CARIAD SE, All rights reserved.
  -
  - NOTICE:
  - All the information and materials contained herein, including the intellectual and technical concepts,
  - are the property of CARIAD SE and may be covered by patents, patents in process, and are protected by trade secret and/or copyright law.
  - The copyright notice above does not evidence any actual or intended publication or disclosure of this source code, which includes information and materials
  - that are confidential and/or proprietary and trade secrets of CARIAD SE.
  - Any reproduction, dissemination, modification, distribution, public performance, public display of or any other use of this source code and/or any other
  - information and/or material contained herein without the prior written consent of CARIAD SE is strictly prohibited and in violation of applicable laws.
  - The receipt or possession of this source code and/or related information does not convey or imply any rights to reproduce, disclose or distribute its
  - contents or to manufacture, use or sell anything that it may describe in whole or in part.
  -->

<svg width="48px" height="48px" viewBox="0 0 48 48" version="1.1" xmlns="http://www.w3.org/2000/svg">
    <g id="Components/Brands-&amp;-Logos/02b---volkswagen-commercial-vehicles" stroke="none" stroke-width="1" fill="none" fill-rule="evenodd">
        <path d="M22.4287754,6.05375334 C22.6021734,6.02932 22.7755713,6.00488667 22.9508205,6.00122167 C23.6684781,6.01343834 24.3867528,6.00977333 25.1044105,6 C27.32773,6.21134837 29.4782346,7.10621936 31.1844456,8.53251543 C32.8598029,9.92093983 34.1106129,11.8059718 34.7215167,13.8834163 C35.22073,15.5625975 35.3071204,17.3584478 34.9800709,19.0785547 C34.6598092,20.7723958 33.9316613,22.3904936 32.8672078,23.7550955 C31.8527373,25.0659441 30.5371345,26.1489518 29.0481337,26.8947794 C27.435718,27.7059662 25.6209019,28.1127813 23.8128736,28.0822396 C21.6444737,28.0516979 19.4884154,27.3791703 17.6995164,26.1648334 C15.8834661,24.9413341 14.4450655,23.1772471 13.6274417,21.1584426 C12.7925399,19.1200914 12.6037151,16.8325202 13.0683722,14.6836081 C13.4509584,12.8938662 14.2957334,11.2036901 15.5008799,9.81770898 C17.2441154,7.7830228 19.7574599,6.41536674 22.4287754,6.05375334 M20.6904765,7.53441359 C21.7327154,9.87146233 22.7891469,12.2024027 23.8357053,14.537619 C23.8869225,14.621914 23.9128396,14.7703465 24.0442765,14.7422482 C24.0627887,14.7117065 24.0998132,14.6506231 24.1189425,14.6194706 C25.1889497,12.2677619 26.226869,9.90078233 27.3098348,7.5545711 C26.9118217,7.38353774 26.4872745,7.28152855 26.0658126,7.18623854 C24.2874039,6.80141347 22.4047095,6.93029933 20.6904765,7.53441359 M15.5767801,11.4749001 C15.5502459,11.5304859 15.4755799,11.5903476 15.5169239,11.6563176 C17.1978348,15.0183449 18.8892361,18.3754854 20.5676787,21.7387343 C20.6201301,21.8437977 20.6799863,21.9445852 20.7429279,22.0441511 C20.8126573,21.9855111 20.8817696,21.9219844 20.9132404,21.8346352 C21.5420394,20.4010091 22.1751578,18.9692155 22.805808,17.5362003 C22.8520885,17.4305261 22.9249033,17.2967536 23.0637451,17.3150786 C23.683905,17.3095811 24.3040649,17.3095811 24.9242247,17.3150786 C25.0698543,17.2918669 25.1439033,17.4323586 25.191418,17.5429195 C25.7819583,18.8879747 26.3762011,20.2318083 26.9685926,21.5756418 C27.0457269,21.739956 27.0938587,21.930536 27.2487444,22.0441511 C27.4394204,21.7564485 27.568389,21.4345393 27.7300625,21.1309551 C29.3128586,17.9595079 30.9116987,14.7947798 32.4907924,11.622111 C32.4537679,11.4846734 32.3420774,11.3777776 32.2655602,11.2598867 C31.3708021,10.0186732 30.210702,8.96009884 28.8630113,8.21793621 C27.6609502,10.9037708 26.4323548,13.5786105 25.22474,16.2626126 C25.1784594,16.3572918 25.1383496,16.4593009 25.0605982,16.5338226 C24.9587809,16.5784135 24.8421538,16.5606993 24.7341658,16.5668076 C24.1787987,16.5600885 23.6228146,16.5716943 23.0674475,16.561921 C22.9341595,16.5710835 22.8527056,16.4544143 22.8082763,16.3462968 C21.5827663,13.6348071 20.3498514,10.9269825 19.1268097,8.21427121 C17.7081555,9.00957635 16.4888162,10.1390074 15.5767801,11.4749001 M13.8989545,17.5368111 C13.9878132,19.3717548 14.6172292,21.1718809 15.6687242,22.6830828 C16.9071927,24.479544 18.7466918,25.8612492 20.8305525,26.5508802 C22.615749,27.1452211 24.5724923,27.2221861 26.3996499,26.7707802 C28.1799098,26.3346451 29.8287329,25.4012916 31.1227382,24.1160981 C32.3587384,22.895042 33.2732428,21.3551309 33.7409853,19.6887773 C34.3123963,17.6711945 34.2179839,15.4758591 33.4768774,13.5126404 C33.3596333,13.7172696 33.2596672,13.9310614 33.1541475,14.1417989 C31.2782409,17.8715479 29.415293,21.608016 27.5356841,25.3359325 C27.4659546,25.4807 27.3190909,25.6150833 27.1444588,25.5772117 C26.9593365,25.554 26.8698607,25.3774691 26.8025995,25.2278149 C25.9238854,23.2590988 25.0328299,21.2952693 24.1541158,19.3265531 C24.1133888,19.2398148 24.0504472,19.1646822 23.9918252,19.0895497 C23.8307687,19.2886814 23.7517832,19.5342365 23.6456464,19.7626882 C22.8070421,21.6245085 21.9746086,23.489383 21.1323019,25.3493708 C21.0273992,25.65662 20.561508,25.6474575 20.4609248,25.3395975 C18.4776474,21.3997218 16.5017748,17.4561811 14.5289876,13.5114188 C14.0217523,14.7856173 13.8298422,16.1722092 13.8989545,17.5368111 Z M33.573141,33.5736322 C33.8520587,33.4416922 34.2482206,33.6481539 34.2056424,33.9780039 C34.1914497,34.3280115 33.7181536,34.4605623 33.4707067,34.2541006 C33.2547306,34.0745156 33.3040966,33.6762522 33.573141,33.5736322 Z M37.8753845,33.6139472 C38.1222143,33.6127255 38.368427,33.6127255 38.6158739,33.6194447 C38.6263642,34.7299399 38.5955105,35.8416568 38.6313008,36.9521519 C38.7540986,36.9509303 38.8762794,36.9497086 38.9996943,36.9490978 C39.0009284,37.1201311 38.9984601,37.2911645 38.9916723,37.4628087 C38.6960936,37.4854095 38.3567026,37.556877 38.0981484,37.3724053 C37.8809382,37.2105345 37.879704,36.9124478 37.8704479,36.6687252 C37.8735333,35.6504659 37.8642772,34.6322065 37.8753845,33.6139472 Z M9.78862122,33.9095906 C10.4217397,33.5278197 11.2387463,33.5870705 11.8934624,33.8857681 C11.8224988,34.0830673 11.7533865,34.2815882 11.6861253,34.4807199 C11.3621612,34.3536665 11.0135141,34.260209 10.6617816,34.3066323 C10.34152,34.3390065 10.0626023,34.5650149 9.93733618,34.8545499 C9.77010899,35.2363208 9.75653335,35.6742884 9.85279697,36.0762168 C9.93054836,36.3950718 10.1391195,36.7096511 10.4667861,36.8165469 C10.8685016,36.9478761 11.3035391,36.8446453 11.6811887,36.6839961 C11.7459816,36.8855711 11.8428623,37.0798161 11.8718648,37.2917753 C11.2202341,37.5880295 10.4032274,37.6350637 9.77689681,37.252682 C9.27891768,36.9454328 9.0364074,36.3602543 9,35.7988984 L9,35.341995 C9.04566351,34.7855257 9.29249332,34.2107315 9.78862122,33.9095906 L9.78862122,33.9095906 Z M13.2362165,34.7702549 C13.6558272,34.6798516 14.126655,34.7183341 14.4876436,34.9657216 C15.2768819,35.5130284 15.2299842,36.9014528 14.3679311,37.3577453 C13.7520908,37.6723246 12.8635035,37.5611529 12.4691929,36.9558169 C12.1532507,36.4628744 12.1513995,35.7848492 12.4716612,35.2931283 C12.6413567,35.0255833 12.9295305,34.8459982 13.2362165,34.7702549 M13.4108486,35.3694825 C13.215853,35.4305658 13.0819479,35.6113725 13.0362844,35.8037851 C12.9677891,36.0798818 12.9776623,36.3901852 13.1183553,36.6436811 C13.3121167,36.9851369 13.8643983,37.0156786 14.1081428,36.7151486 C14.258709,36.5355635 14.2870944,36.2893977 14.2809236,36.064611 C14.2698163,35.8477651 14.2185991,35.6064859 14.0365621,35.4659942 C13.8681008,35.3193942 13.6175685,35.3077883 13.4108486,35.3694825 L13.4108486,35.3694825 Z M16.3160354,35.0738391 C16.7609461,34.6279307 17.6304041,34.5692907 18.0049683,35.1324791 C18.3733618,34.7445999 18.9990753,34.5992215 19.4865642,34.8417224 C19.7988039,35.0011499 19.9419652,35.36032 19.9493701,35.6932242 C19.9598603,36.2753485 19.9456676,36.8580836 19.9561579,37.4402079 C19.7056256,37.4444837 19.4550934,37.4450945 19.2045611,37.4444837 C19.2045611,36.9020636 19.2070294,36.3590327 19.2045611,35.8166126 C19.2064124,35.642525 19.1490244,35.4323983 18.9645191,35.3688717 C18.6763454,35.2638083 18.375213,35.3981917 18.1499808,35.5753334 C18.1820687,36.1959401 18.1530662,36.8183794 18.1666418,37.4402079 C17.9173437,37.4438729 17.6680456,37.4450945 17.4187475,37.4457054 C17.4138109,36.9038961 17.4212158,36.3626977 17.4156621,35.8208884 C17.4199817,35.6461901 17.3539547,35.4470583 17.1805567,35.3719258 C16.9053415,35.2741925 16.5924847,35.3700933 16.3783599,35.5551759 C16.3598477,36.1831126 16.3697208,36.8128819 16.3746574,37.4414295 C16.1241252,37.4438729 15.8735929,37.4450945 15.6230607,37.4444837 C15.6273802,36.5636619 15.6125704,35.6828401 15.6304656,34.8026291 C15.8254611,34.8056832 16.0210737,34.8075157 16.2160693,34.8111807 C16.2506255,34.8979191 16.2839475,34.9852683 16.3160354,35.0738391 Z M21.3297657,35.0738391 C21.6728592,34.7598707 22.1874993,34.626709 22.6305588,34.8007966 C22.7965518,34.8588257 22.905774,35.0011499 23.0273377,35.1190408 C23.3988166,34.7690332 23.9665251,34.6089949 24.4515457,34.8130132 C24.7971074,34.9571699 24.9643346,35.3389408 24.9711224,35.6920026 C24.9766761,36.2759593 24.9729736,36.8605269 24.9711224,37.4444837 C24.7224414,37.4450945 24.4743774,37.4438729 24.2256964,37.4402079 C24.2275476,36.8965661 24.2300159,36.3529243 24.2256964,35.8098934 C24.222611,35.6455792 24.1800329,35.4440042 24.0091032,35.37498 C23.7233978,35.2638083 23.4019019,35.3847533 23.1803722,35.5735009 C23.1853088,36.1977726 23.1859259,36.8214336 23.1822234,37.4457054 C22.9353936,37.4408187 22.6885638,37.4420404 22.441734,37.4475379 C22.4306267,36.8880144 22.4466706,36.328491 22.4349462,35.7689676 C22.4324779,35.6009884 22.3541094,35.4128517 22.1776261,35.3621525 C21.9061133,35.2876308 21.5901712,35.3682608 21.3964098,35.5722792 C21.3828341,36.196551 21.3988781,36.8214336 21.390239,37.4457054 C21.1403239,37.4450945 20.8910258,37.4420404 20.6417277,37.4402079 C20.6491326,36.5636619 20.6460472,35.6865051 20.6429618,34.8099591 C20.8422769,34.8075157 21.0415919,34.8056832 21.240907,34.8069049 C21.2705266,34.8954758 21.3001462,34.9846574 21.3297657,35.0738391 L21.3297657,35.0738391 Z M25.7782559,35.2552567 C26.1836738,34.6505315 27.1185417,34.564404 27.6936551,34.9693866 C28.1206707,35.2827442 28.1521415,35.8679226 28.0558779,36.3425402 C27.4597839,36.3376535 26.8636899,36.3364318 26.2675959,36.343151 C26.3188131,36.5587752 26.4144597,36.7988327 26.6433943,36.8800736 C27.0272147,37.0120136 27.4338668,36.8819061 27.8071968,36.7750102 C27.8590311,36.9527628 27.9145678,37.1292936 27.9762753,37.303992 C27.5381524,37.490907 27.0494293,37.5703154 26.5761332,37.4994587 C26.2120592,37.4371537 25.8739024,37.2154212 25.704824,36.8861819 C25.4456527,36.3810227 25.45676,35.7304851 25.7782559,35.2552567 M26.45025,35.44095 C26.3385595,35.55823 26.3083229,35.7225442 26.2725325,35.8740309 C26.6563529,35.8923559 27.0414074,35.8770851 27.4258448,35.8844151 C27.4128862,35.6987217 27.4048643,35.4769892 27.2333176,35.36032 C26.9982122,35.2088333 26.6378407,35.2179958 26.45025,35.44095 Z M29.8268817,34.7617032 C29.9891723,34.7079499 30.1613361,34.7329941 30.3285633,34.7433782 C30.3106681,34.9535049 30.2841339,35.16241 30.2643875,35.3725367 C30.0638383,35.3560442 29.8509476,35.3316108 29.6645911,35.4238467 C29.5572201,35.4788217 29.4109735,35.5502892 29.4189955,35.6926134 C29.4103564,36.2759593 29.4202296,36.8605269 29.4146759,37.4445007 C29.1653778,37.4445007 28.9160797,37.4450945 28.6673987,37.4389862 C28.6723353,36.563051 28.6711012,35.6871159 28.6680158,34.8111807 C28.8697991,34.8087374 29.0715825,34.8056832 29.2739829,34.8050724 C29.307922,34.9070816 29.3400099,35.0097016 29.3714807,35.1129325 C29.5035347,34.9748841 29.6374398,34.8209541 29.8268817,34.7617032 L29.8268817,34.7617032 Z M31.1437187,34.9498399 C31.6410808,34.6279307 32.2797529,34.7018416 32.8184589,34.8728749 C32.7795832,35.0652875 32.727749,35.2552567 32.678383,35.4458367 C32.3476311,35.3462708 31.9551717,35.2515916 31.6435491,35.4525559 C31.3819095,35.6223675 31.3226703,35.9607693 31.3516728,36.2484718 C31.3627802,36.4915835 31.4917487,36.7401927 31.7206834,36.8470886 C32.023667,36.9796394 32.3686116,36.9057286 32.6678927,36.7994436 C32.727749,36.9924669 32.7851369,37.1873228 32.8116711,37.388287 C32.3050529,37.5300004 31.7317907,37.6136846 31.245536,37.362632 C30.8413522,37.172052 30.6222907,36.7316411 30.5883516,36.3052793 C30.5352832,35.8056176 30.6895519,35.2289908 31.1437187,34.9498399 L31.1437187,34.9498399 Z M34.8585072,34.9614458 C35.3139082,34.7519299 35.8415069,34.6743541 36.3370178,34.7647574 C36.7084966,34.8325599 37.0201192,35.1391983 37.0651657,35.5148609 C37.1237878,35.9955868 37.0744218,36.482421 37.0954023,36.9655903 C37.1867294,36.9655903 37.2780564,36.9649794 37.3693834,36.9649794 C37.3700005,37.1360128 37.3700005,37.307657 37.3700005,37.4793012 C37.1515561,37.4976262 36.9195361,37.5452712 36.7097308,37.461587 C36.5894012,37.4157745 36.5233743,37.2997162 36.4456229,37.2068695 C36.0840172,37.4676954 35.5996137,37.6277337 35.1651933,37.4530354 C34.5820579,37.2435195 34.5080089,36.3046685 35.0485662,36.0071926 C35.4546012,35.7940117 35.9291315,35.8367701 36.3728081,35.8306617 C36.3678715,35.6468009 36.3326982,35.4183492 36.1210417,35.363985 C35.7470945,35.2766358 35.370062,35.4061325 35.0158612,35.5154717 C34.964027,35.3303892 34.8986171,35.1489716 34.8585072,34.9614458 M35.5576527,36.394461 C35.3638913,36.4744802 35.3515498,36.7560744 35.5014989,36.8819061 C35.776097,37.0278953 36.0920392,36.8947336 36.3561471,36.7878377 C36.3604666,36.6253561 36.3610837,36.4628744 36.3610837,36.3010035 C36.0932733,36.3083335 35.8081849,36.2814568 35.5576527,36.394461 L35.5576527,36.394461 Z M33.3935724,37.4444837 C33.3966577,36.5636619 33.3818479,35.6828401 33.4003602,34.8026291 C33.6459558,34.8087374 33.8921686,34.8081266 34.1383813,34.8056832 C34.1389984,35.6846726 34.1346788,36.563051 34.1408496,37.4420404 C33.8915515,37.443262 33.6422534,37.4450945 33.3935724,37.4444837 Z M23.6604562,39.0289856 C23.9282665,38.9227006 24.280616,39.1212215 24.2584013,39.4229732 C24.2738282,39.8041333 23.7122904,39.9543983 23.4870582,39.6770799 C23.3025529,39.478559 23.3864751,39.1004531 23.6604562,39.0289856 Z M20.2085414,39.0821281 C20.4590736,39.0802956 20.7096059,39.0821281 20.959521,39.0857931 C20.950882,39.5512482 20.959521,40.0167033 20.9539674,40.4821584 C21.2717607,40.25615 21.6784128,40.1150475 22.0677868,40.2286625 C22.4985049,40.3270067 22.7521225,40.7692501 22.7471859,41.1864493 C22.7515054,41.7618544 22.7490371,42.3378704 22.7471859,42.9132755 C22.4985049,42.9120538 22.2504409,42.9132755 22.0017599,42.9132755 C22.0036111,42.379407 22.0042282,41.8455386 22.002994,41.312281 C22.002994,41.1357502 21.9480744,40.9250126 21.7697399,40.8480476 C21.4957588,40.7307676 21.1378556,40.8303334 20.9613723,41.0661151 C20.9465625,41.6806136 20.9607552,42.2963337 20.9558186,42.911443 C20.7065205,42.911443 20.4572224,42.9132755 20.2085414,42.9138863 C20.2085414,41.6366336 20.2079243,40.3593809 20.2085414,39.0821281 L20.2085414,39.0821281 Z M27.5671549,39.0845715 C27.8189213,39.0821281 28.0700706,39.0802956 28.321837,39.0839606 C28.3249224,40.1920125 28.3150492,41.301286 28.3267736,42.4099487 C28.4514226,42.4142245 28.5766888,42.4172787 28.7019549,42.4209437 C28.7013378,42.5846471 28.7068915,42.7489613 28.6970183,42.9132755 C28.463147,42.973748 28.2095294,42.9761913 27.9731899,42.9273246 C27.7201893,42.8619654 27.5862842,42.5993071 27.5838159,42.3561954 C27.5634524,41.2658577 27.5949232,40.1749092 27.5671549,39.0845715 L27.5671549,39.0845715 Z M13.4460218,39.1920782 C13.7280249,39.1914673 14.010645,39.1920782 14.2926481,39.1920782 C14.6258683,40.1620817 14.9121909,41.1491885 15.2639233,42.1124728 C15.5878874,41.1412477 15.8754442,40.1547517 16.2228571,39.1932998 C16.5030089,39.1841373 16.7831608,39.1939107 17.0633126,39.1939107 C16.6190189,40.4332917 16.1586814,41.6677861 15.7242609,42.9108321 C15.4070846,42.9108321 15.0899083,42.9242705 14.7739662,42.8986155 C14.3426311,41.6592344 13.8767398,40.4314592 13.4460218,39.1920782 L13.4460218,39.1920782 Z M17.3305059,40.7008367 C17.7513507,40.1071066 18.6868356,40.0319741 19.2545442,40.4522275 C19.6642816,40.7704718 19.6797085,41.3385469 19.6031913,41.8052236 C19.0058631,41.8137753 18.4079179,41.8058344 17.8099727,41.8101103 C17.8463801,42.0544436 17.9876902,42.3042745 18.2456273,42.3696337 C18.6103184,42.449042 18.9885851,42.3592495 19.3322956,42.2340287 C19.394003,42.4117812 19.468669,42.5870904 19.5032252,42.7733946 C19.0978072,42.9566446 18.6417892,43.0171171 18.2005809,42.977413 C17.7772678,42.937098 17.381723,42.6713854 17.2083251,42.284117 C16.9824758,41.7826228 17.0108613,41.1565185 17.3305059,40.7008367 M18.1512149,40.7790234 C17.9309193,40.8816434 17.8513167,41.1247552 17.8056532,41.3428227 C18.1919419,41.3464877 18.5788476,41.3440444 18.9657533,41.345266 C18.9484752,41.1974443 18.9595826,41.0294651 18.8540628,40.9103526 C18.689921,40.7087776 18.3801496,40.6849551 18.1512149,40.7790234 L18.1512149,40.7790234 Z M25.3228549,40.4241292 C25.8239194,40.0924466 26.474933,40.16086 27.0179585,40.3459425 C26.9710609,40.5365226 26.9161413,40.7252701 26.864307,40.9146284 C26.5471307,40.8089543 26.1738006,40.7252701 25.8652634,40.8993576 C25.6313921,41.0288543 25.5431505,41.3061727 25.5363627,41.5560036 C25.5283407,41.8241594 25.6011555,42.1393495 25.8572414,42.280452 C26.1694811,42.4655345 26.5471307,42.3659687 26.872946,42.2737328 C26.9179925,42.4618695 26.9704438,42.6493954 27.0161073,42.8375321 C26.4860403,43.021393 25.8504536,43.0879738 25.3537086,42.7795029 C24.9532272,42.5443321 24.7742756,42.0654386 24.7736586,41.6219736 C24.7613171,41.1705677 24.9223735,40.6776251 25.3228549,40.4241292 L25.3228549,40.4241292 Z M29.290644,40.7637526 C29.7034668,40.0881708 30.7722399,40.0002108 31.3411825,40.5224734 C31.6818077,40.8541559 31.6602101,41.3617585 31.6145466,41.7954503 C31.0153672,41.8241594 30.4149537,41.8033911 29.8151573,41.8070561 C29.8515647,42.0434486 29.978065,42.2865603 30.2248948,42.361082 C30.6000761,42.4612587 30.9913013,42.3488654 31.3504387,42.2383045 C31.4022729,42.4166679 31.4627462,42.5931987 31.5151976,42.7721729 C31.0369648,42.9645855 30.4945563,43.0788113 29.986704,42.9358763 C29.6392911,42.8405863 29.3369245,42.5895337 29.2005511,42.2566295 C29.0024702,41.7807903 29.0209824,41.2084393 29.290644,40.7637526 M29.9941089,40.9048551 C29.8805672,41.0233568 29.8527988,41.1901143 29.8114548,41.3422119 C30.1952752,41.3477094 30.5790955,41.341601 30.9629159,41.3464877 C30.955511,41.1772868 30.9561281,40.9805985 30.8172863,40.8590426 C30.5865004,40.6702951 30.1977435,40.6770142 29.9941089,40.9048551 L29.9941089,40.9048551 Z M32.5167095,40.3428884 C33.0369033,40.0863383 33.6515095,40.1883475 34.1821936,40.3612134 C34.1482545,40.5487392 34.0822275,40.7289351 33.9958371,40.8987468 C33.6613827,40.8120084 33.3059478,40.6806792 32.9610031,40.7906293 C32.7906906,40.8468259 32.7814344,41.1229227 32.9560665,41.1815627 C33.316438,41.3391577 33.7625829,41.3226652 34.0581616,41.6128111 C34.4308746,41.9658728 34.2772231,42.6548929 33.813183,42.8564679 C33.2473257,43.1050772 32.5796511,43.0061221 32.0378597,42.7416313 C32.1162281,42.5705979 32.1822551,42.394067 32.2630919,42.2242553 C32.6154414,42.3494762 32.9955593,42.5076821 33.3744431,42.3989537 C33.5527776,42.3568062 33.6070801,42.0746011 33.431831,41.9927495 C33.0893546,41.8204944 32.6574025,41.8583661 32.355653,41.5993727 C31.9483839,41.2780743 32.0532865,40.5627884 32.5167095,40.3428884 L32.5167095,40.3428884 Z M23.4494167,40.2769183 C23.6974806,40.2799725 23.9455446,40.2793617 24.1936085,40.2683667 C24.1917573,41.1497993 24.1929915,42.031232 24.1929915,42.9126646 C23.9443104,42.9126646 23.6956294,42.9126646 23.4469484,42.911443 C23.4487996,42.0330645 23.4444801,41.1552968 23.4494167,40.2769183 Z" id="Shape" fill="black" fill-rule="nonzero"></path>
    </g>
</svg>