<?xml version="1.0" encoding="utf-8"?>
<!--
  - (c) 2022 CARIAD SE, All rights reserved.
  -
  - NOTICE:
  - All the information and materials contained herein, including the intellectual and technical concepts,
  - are the property of CARIAD SE and may be covered by patents, patents in process, and are protected by trade secret and/or copyright law.
  - The copyright notice above does not evidence any actual or intended publication or disclosure of this source code, which includes information and materials
  - that are confidential and/or proprietary and trade secrets of CARIAD SE.
  - Any reproduction, dissemination, modification, distribution, public performance, public display of or any other use of this source code and/or any other
  - information and/or material contained herein without the prior written consent of CARIAD SE is strictly prohibited and in violation of applicable laws.
  - The receipt or possession of this source code and/or related information does not convey or imply any rights to reproduce, disclose or distribute its
  - contents or to manufacture, use or sell anything that it may describe in whole or in part.
  -->

<!-- Generator: Adobe Illustrator 24.3.0, SVG Export Plug-In . SVG Version: 6.00 Build 0)  -->
<svg version="1.1" id="Ebene_1" xmlns="http://www.w3.org/2000/svg" x="0px" y="0px"
     viewBox="0 0 78 70" style="enable-background:new 0 0 78 70;" xml:space="preserve">
<style type="text/css">
	.st0{fill:none;stroke:#000000;stroke-width:2.1896;}
</style>
    <path class="st0" d="M19,25.6c-5.2,0.2-9.2,4.5-9.1,9.7s4.5,9.2,9.7,9.1s9.2-4.5,9.1-9.7c-0.2-4.9-4.1-8.9-9.1-9.1H19z M32.1,25.6
	c-5.2,0.2-9.2,4.5-9.1,9.7s4.5,9.2,9.7,9.1s9.2-4.5,9.1-9.7c-0.2-4.9-4.1-8.9-9.1-9.1H32.1z M45.3,25.6c-5.2,0.2-9.2,4.5-9.1,9.7
	s4.5,9.2,9.7,9.1s9.2-4.5,9.1-9.7c-0.2-4.9-4.1-8.9-9.1-9.1H45.3z M58.4,25.6c-5.2,0.2-9.2,4.5-9.1,9.7c0.2,5.2,4.5,9.2,9.7,9.1
	s9.2-4.5,9.1-9.7c-0.2-4.9-4.1-8.9-9.1-9.1H58.4z"/>
</svg>
