<?xml version="1.0" encoding="utf-8"?>
<!--
  - (c) 2022 CARIAD SE, All rights reserved.
  -
  - NOTICE:
  - All the information and materials contained herein, including the intellectual and technical concepts,
  - are the property of CARIAD SE and may be covered by patents, patents in process, and are protected by trade secret and/or copyright law.
  - The copyright notice above does not evidence any actual or intended publication or disclosure of this source code, which includes information and materials
  - that are confidential and/or proprietary and trade secrets of CARIAD SE.
  - Any reproduction, dissemination, modification, distribution, public performance, public display of or any other use of this source code and/or any other
  - information and/or material contained herein without the prior written consent of CARIAD SE is strictly prohibited and in violation of applicable laws.
  - The receipt or possession of this source code and/or related information does not convey or imply any rights to reproduce, disclose or distribute its
  - contents or to manufacture, use or sell anything that it may describe in whole or in part.
  -->

<!-- Generator: Adobe Illustrator 24.3.0, SVG Export Plug-In . SVG Version: 6.00 Build 0)  -->
<svg xmlns:xlink="http://www.w3.org/1999/xlink" version="1.1" id="Ebene_1" xmlns="http://www.w3.org/2000/svg" x="0px"
     y="0px"
     viewBox="0 0 78 70" style="enable-background:new 0 0 78 70;" xml:space="preserve">
<style type="text/css">
	.st0{clip-path:url(#SVGID_2_);fill:#FFFFFF;}
	.st1{clip-path:url(#SVGID_4_);fill-rule:evenodd;clip-rule:evenodd;}
</style>
    <g>
	<defs>
		<rect id="SVGID_1_" width="78" height="70"/>
	</defs>
        <clipPath id="SVGID_2_">
		<use xlink:href="#SVGID_1_" style="overflow:visible;"/>
	</clipPath>
</g>
    <g>
	<defs>
		<rect id="SVGID_3_" x="24" y="22" width="30" height="27"/>
	</defs>
        <clipPath id="SVGID_4_">
		<use xlink:href="#SVGID_3_" style="overflow:visible;"/>
	</clipPath>
        <path class="st1" d="M24,31.8c0-1,0.1-3.3,0.1-4.7c0.1-1.8,0.4-2.9,1.2-3.6c1-0.9,2.2-1.1,5-1.3c6.5-0.4,13.2-0.3,21.5,0.3
		c0.9,0.1,1.2,0.2,1.4,0.3c0.4,0.3,0.4,0.5,0.5,2c0.1,0.9,0.2,3.1,0.2,4.4c-2.9-0.2-7.7-0.4-12-0.4c-4.2-0.1-8.1,0-8.5,0.1
		c-0.9,0.1-1.4,0.6-1.5,0.8l22,4.1V37L24,31.8z"/>
        <path class="st1" d="M24,33.4L53.9,39c0,0.8-0.1,3.4-0.1,4.9c-0.1,1.8-0.4,2.9-1.2,3.6c-1,0.9-2.2,1.1-5,1.3
		c-6.5,0.4-13.2,0.3-21.5-0.3c-0.9-0.1-1.2-0.2-1.4-0.3c-0.4-0.3-0.4-0.5-0.5-2c-0.1-1-0.2-3.9-0.3-4.9c3.9,0.3,9.8,0.5,14.6,0.5
		c1.2,0,4.4,0,5.2,0c0.7,0,1.5-0.2,2-0.9L24,37V33.4z"/>
</g>
</svg>
