<?xml version="1.0" encoding="utf-8"?>
<!--
  - (c) 2022 CARIAD SE, All rights reserved.
  -
  - NOTICE:
  - All the information and materials contained herein, including the intellectual and technical concepts,
  - are the property of CARIAD SE and may be covered by patents, patents in process, and are protected by trade secret and/or copyright law.
  - The copyright notice above does not evidence any actual or intended publication or disclosure of this source code, which includes information and materials
  - that are confidential and/or proprietary and trade secrets of CARIAD SE.
  - Any reproduction, dissemination, modification, distribution, public performance, public display of or any other use of this source code and/or any other
  - information and/or material contained herein without the prior written consent of CARIAD SE is strictly prohibited and in violation of applicable laws.
  - The receipt or possession of this source code and/or related information does not convey or imply any rights to reproduce, disclose or distribute its
  - contents or to manufacture, use or sell anything that it may describe in whole or in part.
  -->

<!-- Generator: Adobe Illustrator 24.3.0, SVG Export Plug-In . SVG Version: 6.00 Build 0)  -->
<svg version="1.1" id="Ebene_1" xmlns="http://www.w3.org/2000/svg" x="0px" y="0px"
     viewBox="0 0 78 70" style="enable-background:new 0 0 78 70;" xml:space="preserve">
<path d="M39.5,17.3c-10.1,0-18.2,8.1-18.2,18.2s8.1,18.2,18.2,18.2s18.2-8.1,18.2-18.2S49.6,17.3,39.5,17.3z M39.5,52.1
	c-9.2,0-16.6-7.4-16.6-16.6s7.4-16.6,16.6-16.6s16.6,7.4,16.6,16.6S48.7,52.1,39.5,52.1z M52.1,43.4c-1.2-1.2-2.8-1.9-4.5-2.2
	c-0.2,0-0.5,0.2-0.5,0.4s0,0.4,0,0.6c0,0.2-0.2,0.4-0.3,0.4s-0.3,0-0.4,0c-0.5,0-0.6-0.6-0.5-0.9c1-3.6,1.3-5.7,1.2-7.4
	c0-1.7-0.1-3.5-0.8-5.6c-0.7-2.2-1.4-4.3-5-7.5c-0.2-0.2-0.5-0.3-0.8-0.3c-0.4,0-0.6,0-1,0c-1.5,0-2.9,0.2-4.3,0.6
	c-0.5,0.2-0.4,0.5-0.2,0.7c1.3,1.2,3.2,2.9,4.4,5.1c-0.8,0.1-1.4-0.4-1.9-0.9c-1.7-1.6-3.4-2.7-4.8-3.5c-0.2-0.1-0.5-0.2-0.7-0.1
	c-1.5,0.9-2.6,1.7-3.8,3.1c-0.2,0.2-0.1,0.4,0.1,0.5c1.3,0.7,3.4,2,5.3,3.8c-0.4,0.3-1,0.2-1.9-0.2c-1.7-0.9-3.4-1.4-4.6-1.8
	c-0.3-0.1-0.6,0-0.7,0.2c-0.8,1.4-1.4,3.1-1.6,4.8c-0.1,0.3,0.2,0.6,0.5,0.7c2.9,0.5,8.2,1.9,9.1,8c0.1,0.5-0.4,1-1,0.7
	c-0.9-0.4-1.8-0.8-2.7-1.2c-0.1,0-0.2-0.1-0.3-0.1c-1.4,0-2.8,0-4.2,0c-0.6,0-0.8,0.6-0.5,1c1,1.2,1.9,2.4,2.7,3.7
	c0.1,0.1,0.1,0.2,0.3,0.2c0.6,0,1.2,0,1.8,0c0.1,0,0.2,0,0.3-0.1c0.6-0.3,1.1-0.7,1.7-1c0.1-0.1,0.2-0.1,0.3-0.1c4.4,0,9.1,0,13.7,0
	c0.2,0,0.3,0.1,0.3,0.3s0,0.4,0,0.7s0.2,0.4,0.5,0.4c1.7-0.3,3.3-1,4.5-2.2C52.3,43.9,52.3,43.6,52.1,43.4 M44,39.1
	c0,1-0.8,1.8-1.9,1.8c-1,0-1.8-0.8-1.8-1.8s0.8-1.9,1.8-1.9C43.2,37.2,44,38,44,39.1"/>
</svg>
