<?xml version="1.0" encoding="utf-8"?>
<!--
  - (c) 2022 CARIAD SE, All rights reserved.
  -
  - NOTICE:
  - All the information and materials contained herein, including the intellectual and technical concepts,
  - are the property of CARIAD SE and may be covered by patents, patents in process, and are protected by trade secret and/or copyright law.
  - The copyright notice above does not evidence any actual or intended publication or disclosure of this source code, which includes information and materials
  - that are confidential and/or proprietary and trade secrets of CARIAD SE.
  - Any reproduction, dissemination, modification, distribution, public performance, public display of or any other use of this source code and/or any other
  - information and/or material contained herein without the prior written consent of CARIAD SE is strictly prohibited and in violation of applicable laws.
  - The receipt or possession of this source code and/or related information does not convey or imply any rights to reproduce, disclose or distribute its
  - contents or to manufacture, use or sell anything that it may describe in whole or in part.
  -->

<!-- Generator: Adobe Illustrator 24.3.0, SVG Export Plug-In . SVG Version: 6.00 Build 0)  -->
<svg viewBox="-10 -10 40 40" fill="none" xmlns="http://www.w3.org/2000/svg">
<path d="M0.7022 13.7464C1.10129 13.7464 1.45091 13.7456 1.80012 13.7473C1.85499 13.7477 1.91195 13.7697 1.96474 13.761C2.26781 13.7115 2.42245 13.8728 2.56255 14.1193C3.89411 16.4561 5.89996 17.8721 8.5294 18.3713C11.9213 19.0153 15.4403 17.4256 17.2745 14.4054C17.4857 14.0574 17.6541 13.6837 17.8378 13.3195C17.8769 13.2422 17.8968 13.1549 17.9388 13.0356L17.6628 13.0356C16.1246 13.0351 14.5869 13.0381 13.0487 13.0335C9.34296 13.0231 5.63764 13.0069 1.9319 12.9986C1.23682 12.9969 0.746266 12.6839 0.42824 12.079C0.176728 11.6005 0.0453604 11.0892 0.0162599 10.5508C-0.143792 7.57922 0.88096 5.05538 2.94543 2.94975C4.33269 1.53547 6.01803 0.630859 7.9636 0.234677C8.73643 0.0771189 9.52048 -0.0176651 10.3116 0.0168399C14.9373 0.220128 18.5167 3.28607 19.6674 7.35889C19.6819 7.41085 19.6903 7.46448 19.7102 7.55885C19.3893 7.55885 19.0879 7.56093 18.7869 7.55802C18.5728 7.55594 18.3126 7.61913 18.1587 7.51977C18.0174 7.42915 17.9916 7.15976 17.9135 6.96936C16.7303 4.0855 14.6085 2.33074 11.5633 1.68222C8.74765 1.08275 5.31837 2.22515 3.3757 4.70659C2.60496 5.69102 2.04373 6.77189 1.75605 7.9912C1.7361 8.07601 1.72363 8.16289 1.6991 8.29551C1.98719 8.22276 2.23746 8.16123 2.48689 8.09597C3.64883 7.79249 4.80287 7.45118 5.97521 7.19593C6.86277 7.00262 7.77237 6.90035 8.67615 6.79351C9.22365 6.72866 9.77905 6.72034 10.3315 6.70704C11.2428 6.68459 12.1358 6.84049 13.0192 7.04128C14.4929 7.37635 15.9642 7.72431 17.4337 8.07767C17.8025 8.16622 18.1658 8.28387 18.5242 8.409C19.6616 8.8056 20.076 9.42752 19.9887 10.6206C19.8969 11.8711 19.6271 13.0809 19.0754 14.2137C17.6378 17.1641 15.3331 19.0431 12.1304 19.8023C11.2599 20.0085 10.3727 20.0018 9.48805 19.9794C7.17955 19.9207 5.18492 19.0564 3.44637 17.5698C2.30813 16.5962 1.44343 15.4127 0.828163 14.047C0.794905 13.9705 0.764558 13.894 0.7022 13.7464ZM5.98643 9.69691C5.83885 9.30197 5.72369 8.97106 5.39527 8.79105C4.97457 8.55991 4.53889 8.37408 4.03795 8.41815C3.85253 8.43478 3.66338 8.41191 3.47714 8.42396C2.97495 8.45639 2.48689 8.54827 2.07075 8.85715C1.51286 9.27038 1.53738 9.95507 2.1144 10.3417C2.45613 10.5703 2.84566 10.6518 3.23727 10.7437C3.63761 10.8381 4.03005 10.9678 4.42332 11.0904C4.54679 11.1291 4.57049 11.2255 4.55302 11.3565C4.52683 11.5498 4.39838 11.5913 4.24248 11.6283C3.74278 11.7464 3.27842 11.6479 3.10008 11.3199C2.97079 11.0817 2.80616 11.0168 2.56546 11.0376C2.50477 11.043 2.44199 11.0206 2.38047 11.0231C2.08198 11.0343 1.78349 11.0497 1.46214 11.0642C1.62635 11.699 1.89698 12.1646 2.52306 12.3413C3.13999 12.5155 3.76814 12.5155 4.39588 12.4664C4.81784 12.4332 5.22317 12.3126 5.58318 12.0715C6.0226 11.7768 6.22298 11.2567 6.0517 10.8119C5.89954 10.4178 5.5757 10.207 5.19282 10.0906C4.8565 9.98833 4.51062 9.91765 4.16848 9.83576C3.82925 9.75469 3.48878 9.67695 3.14955 9.59755C3.24683 9.17601 3.35034 9.10575 3.72616 9.17933C3.83466 9.20053 3.94773 9.20636 4.05042 9.24294C4.13481 9.27287 4.24331 9.31943 4.2774 9.39011C4.41085 9.66324 4.62162 9.73141 4.90389 9.70106C5.08889 9.68111 5.27763 9.69732 5.46428 9.69732C5.62143 9.6969 5.77774 9.69691 5.98643 9.69691ZM5.87585 12.4407L6.98582 12.4407C7.49051 12.4407 7.493 12.4415 7.67176 11.9713C7.72207 11.8387 7.79274 11.7718 7.94531 11.7751C8.35355 11.7842 8.7622 11.7768 9.17085 11.7793C9.52422 11.7813 9.52422 11.7834 9.63521 12.1135C9.73707 12.4161 9.75577 12.4344 10.0734 12.4394C10.3989 12.4448 10.7244 12.4407 11.0499 12.4407L11.4153 12.4407C11.3933 12.36 11.3887 12.3189 11.3717 12.2844C10.7726 11.0684 10.1748 9.85197 9.56704 8.64014C9.5342 8.57446 9.41904 8.51459 9.3413 8.51293C8.87777 8.50378 8.41341 8.51542 7.94947 8.51293C7.82101 8.51251 7.74909 8.56407 7.69338 8.67798C7.13049 9.83451 6.56304 10.9886 5.99807 12.1443C5.95691 12.2286 5.92615 12.3176 5.87585 12.4407ZM18.5055 9.90643C18.4601 9.7788 18.4377 9.69275 18.4007 9.61418C18.1554 9.09411 17.7306 8.77816 17.2042 8.58901C16.5117 8.33999 15.802 8.36535 15.097 8.51335C14.1645 8.70915 13.5472 9.41131 13.5023 10.2893C13.4511 11.2879 13.9392 12.0054 14.8937 12.3238C15.6245 12.5675 16.3641 12.5338 17.1032 12.3687C17.832 12.2062 18.2718 11.7269 18.5283 11.0497C18.5811 10.91 18.557 10.8347 18.397 10.8343C17.997 10.8331 17.5971 10.8252 17.198 10.8385C17.1257 10.841 17.0259 10.9162 16.991 10.9848C16.8667 11.228 16.6784 11.3868 16.4273 11.4766C15.8931 11.6674 15.3069 11.4591 15.1348 11.0102C15.0159 10.7 14.9893 10.3791 15.0778 10.054C15.1755 9.69483 15.4865 9.40216 15.807 9.36807C16.2489 9.32068 16.6484 9.38387 16.9382 9.7709C16.9835 9.83118 17.0675 9.89895 17.1352 9.90061C17.5763 9.91183 18.0178 9.90643 18.5055 9.90643ZM13.1585 10.483C13.1585 9.89437 13.1526 9.30571 13.1622 8.71747C13.1647 8.55076 13.1094 8.50088 12.9485 8.50462C12.554 8.51335 12.1595 8.51252 11.765 8.50503C11.6124 8.50212 11.555 8.55825 11.5554 8.70957C11.5583 9.88689 11.5583 11.0638 11.5554 12.2411C11.555 12.3949 11.617 12.4461 11.7674 12.4432C12.162 12.4361 12.5569 12.4344 12.9514 12.4436C13.116 12.4473 13.1647 12.3904 13.1622 12.2278C13.153 11.6462 13.1585 11.0646 13.1585 10.483Z" fill="black"/>
</svg>
