<!--
  - (c) 2022 CARIAD SE, All rights reserved.
  -
  - NOTICE:
  - All the information and materials contained herein, including the intellectual and technical concepts,
  - are the property of CARIAD SE and may be covered by patents, patents in process, and are protected by trade secret and/or copyright law.
  - The copyright notice above does not evidence any actual or intended publication or disclosure of this source code, which includes information and materials
  - that are confidential and/or proprietary and trade secrets of CARIAD SE.
  - Any reproduction, dissemination, modification, distribution, public performance, public display of or any other use of this source code and/or any other
  - information and/or material contained herein without the prior written consent of CARIAD SE is strictly prohibited and in violation of applicable laws.
  - The receipt or possession of this source code and/or related information does not convey or imply any rights to reproduce, disclose or distribute its
  - contents or to manufacture, use or sell anything that it may describe in whole or in part.
  -->

<svg id="Ebene_4" data-name="Ebene 4" xmlns="http://www.w3.org/2000/svg" viewBox="0 0 78 70">
    <path d="M39.78,34.48l-.14-.09-.14-.09h0a1.39,1.39,0,0,0-.19-.06l-.15,0a1.08,1.08,0,0,0-.18,0,1,1,0,0,0-.17,0l-.15,0a1.06,1.06,0,0,0-.19.06h0l-.14.09-.14.09-5.91,5a1.25,1.25,0,1,0,1.61,1.9l3.85-3.26v9.78a1.25,1.25,0,0,0,2.5,0V38.13l3.86,3.26a1.25,1.25,0,1,0,1.61-1.9Z"/>
    <polygon points="55.02 34.84 55.02 34.84 55.02 34.84 55.02 34.84"/>
    <path d="M55.25,36.72A7.48,7.48,0,0,0,55,34.85a7.61,7.61,0,0,0-7.36-5.73H47a11.41,11.41,0,0,0-9.46-7.53,11.15,11.15,0,0,0-1.29-.07,11.34,11.34,0,0,0-11.3,10,6.26,6.26,0,0,0,1.7,12.29,1.25,1.25,0,0,0,0-2.5,3.77,3.77,0,0,1-.41-7.51,1.25,1.25,0,0,0,1.12-1.2A8.88,8.88,0,0,1,36.24,24c.33,0,.67,0,1,.05a8.92,8.92,0,0,1,7.61,6.62,1.24,1.24,0,0,0,1.21.93h1.59a5.12,5.12,0,0,1,4.94,3.84h0a5.42,5.42,0,0,1,.15,1.26,5.1,5.1,0,0,1-2.65,4.47,1.25,1.25,0,1,0,1.19,2.19h0A7.57,7.57,0,0,0,55.25,36.72Z"/>
</svg>
