<!--
  - (c) 2022 CARIAD SE, All rights reserved.
  -
  - NOTICE:
  - All the information and materials contained herein, including the intellectual and technical concepts,
  - are the property of CARIAD SE and may be covered by patents, patents in process, and are protected by trade secret and/or copyright law.
  - The copyright notice above does not evidence any actual or intended publication or disclosure of this source code, which includes information and materials
  - that are confidential and/or proprietary and trade secrets of CARIAD SE.
  - Any reproduction, dissemination, modification, distribution, public performance, public display of or any other use of this source code and/or any other
  - information and/or material contained herein without the prior written consent of CARIAD SE is strictly prohibited and in violation of applicable laws.
  - The receipt or possession of this source code and/or related information does not convey or imply any rights to reproduce, disclose or distribute its
  - contents or to manufacture, use or sell anything that it may describe in whole or in part.
  -->

<svg id="Ebene_4" data-name="Ebene 4" xmlns="http://www.w3.org/2000/svg" viewBox="0 0 78 70"><polygon points="23.17 46.08 23.17 46.08 23.17 46.08 23.17 46.08"/><path d="M48.13,44.24l-.88-5.41h0a5,5,0,0,0-.71-1.9,4.29,4.29,0,0,0-1.47-1.34L45,35.52l-4-1.79a1.25,1.25,0,0,0-1.65.63A1.26,1.26,0,0,0,40,36l3.9,1.74a1.7,1.7,0,0,1,.6.54,2.38,2.38,0,0,1,.34,1l.85,5.24h-.28c-1.8.08-7.68.29-10,.33h0c-1.29,0-3.76-.1-6-.18l-2.95-.11-1,0H25.2l.85-5.24a2.38,2.38,0,0,1,.34-1,1.65,1.65,0,0,1,.61-.54L30.9,36a1.25,1.25,0,1,0-1-2.28L25.92,35.5l0,0,0,0-.08,0a4.29,4.29,0,0,0-1.47,1.34,5.06,5.06,0,0,0-.71,1.91h0l-.88,5.4h0a1.72,1.72,0,0,0,0,.39A2.35,2.35,0,0,0,24.81,47h0l.55,0c1.83.08,7.68.29,10,.33h.07c1.33,0,3.81-.1,6.05-.18l3-.11,1,0L46,47h0a2.32,2.32,0,0,0,1.64-.89h0a2.32,2.32,0,0,0,.5-1.45,2.58,2.58,0,0,0,0-.39Zm-23,.4Z"/><path d="M35.42,32.85a5.86,5.86,0,1,0-4.31-1.71A6,6,0,0,0,35.42,32.85Zm-2.54-8.57A3.53,3.53,0,0,1,39,26.83a3.53,3.53,0,1,1-7.06,0A3.53,3.53,0,0,1,32.88,24.28Z"/><path d="M55.43,44.24h0l-.88-5.41h0a5,5,0,0,0-.71-1.9,4.29,4.29,0,0,0-1.47-1.34l-.11-.06-4-1.79a1.25,1.25,0,0,0-1.65.63A1.26,1.26,0,0,0,47.25,36l3.9,1.74a1.83,1.83,0,0,1,.61.54,2.56,2.56,0,0,1,.33,1L53,44.53a1.21,1.21,0,0,0-1,1.3A1.25,1.25,0,0,0,53.33,47,2.32,2.32,0,0,0,55,46.08h0a2.32,2.32,0,0,0,.5-1.45A1.72,1.72,0,0,0,55.43,44.24Z"/><path d="M43,30.35a1.25,1.25,0,0,0,0,2.5,6,6,0,1,0,0-12,1.25,1.25,0,0,0,0,2.5,3.56,3.56,0,0,1,2.55,1,3.52,3.52,0,0,1,1,2.55,3.48,3.48,0,0,1-1,2.54A3.52,3.52,0,0,1,43,30.35Z"/></svg>