<!--
  - (c) 2022 CARIAD SE, All rights reserved.
  -
  - NOTICE:
  - All the information and materials contained herein, including the intellectual and technical concepts,
  - are the property of CARIAD SE and may be covered by patents, patents in process, and are protected by trade secret and/or copyright law.
  - The copyright notice above does not evidence any actual or intended publication or disclosure of this source code, which includes information and materials
  - that are confidential and/or proprietary and trade secrets of CARIAD SE.
  - Any reproduction, dissemination, modification, distribution, public performance, public display of or any other use of this source code and/or any other
  - information and/or material contained herein without the prior written consent of CARIAD SE is strictly prohibited and in violation of applicable laws.
  - The receipt or possession of this source code and/or related information does not convey or imply any rights to reproduce, disclose or distribute its
  - contents or to manufacture, use or sell anything that it may describe in whole or in part.
  -->

<svg id="Ebene_4" data-name="Ebene 4" xmlns="http://www.w3.org/2000/svg" viewBox="0 0 78 70">
    <polygon points="52.45 46.08 52.45 46.08 52.45 46.08 52.45 46.08"/>
    <path d="M52.91,44.24h0L52,38.83h0a4.71,4.71,0,0,0-.71-1.9,4.2,4.2,0,0,0-1.47-1.34l-.11-.06-4-1.79a1.26,1.26,0,0,0-1,2.29l3.91,1.74a1.7,1.7,0,0,1,.6.54,2.39,2.39,0,0,1,.33,1l.86,5.24h-.29c-1.79.08-7.68.29-10,.33h0c-1.29,0-3.76-.1-6-.18l-3-.11-1,0H30l.86-5.25h0a2.39,2.39,0,0,1,.33-1,1.83,1.83,0,0,1,.61-.54L35.67,36a1.25,1.25,0,0,0-1-2.28L30.69,35.5l0,0,0,0-.07,0a4.2,4.2,0,0,0-1.47,1.34,4.75,4.75,0,0,0-.71,1.91h0l-.88,5.4h0a2.56,2.56,0,0,0,0,.39,2.37,2.37,0,0,0,.49,1.45,2.32,2.32,0,0,0,1.65.89h0l.55,0c1.84.08,7.68.29,10,.33h.06c1.34,0,3.82-.1,6-.18l3-.11,1,0,.55,0h0a2.32,2.32,0,0,0,1.65-.89,2.37,2.37,0,0,0,.49-1.45A2.56,2.56,0,0,0,52.91,44.24Zm-23,.4Z"/>
    <polygon points="27.95 46.08 27.94 46.08 27.94 46.08 27.95 46.08"/>
    <path d="M40.2,32.85a5.85,5.85,0,1,0-4.32-1.71A6,6,0,0,0,40.2,32.85Zm-2.55-8.57a3.79,3.79,0,0,1,5.09,0,3.52,3.52,0,0,1,1,2.55,3.36,3.36,0,0,1-3.52,3.52,3.52,3.52,0,0,1-2.55-1,3.48,3.48,0,0,1-1-2.54A3.52,3.52,0,0,1,37.65,24.28Z"/>
</svg>
